<?xml version="1.0" encoding="UTF-8" standalone="no"?>
<!-- Created with Inkscape (http://www.inkscape.org/) -->

<svg
   xmlns:dc="http://purl.org/dc/elements/1.1/"
   xmlns:cc="http://creativecommons.org/ns#"
   xmlns:rdf="http://www.w3.org/1999/02/22-rdf-syntax-ns#"
   xmlns:svg="http://www.w3.org/2000/svg"
   xmlns="http://www.w3.org/2000/svg"
   version="1.1"
   width="788.70374"
   height="381.01624"
   id="svg5236"
   xml:space="preserve"><metadata
     id="metadata5242"><rdf:RDF><cc:Work
         rdf:about=""><dc:format>image/svg+xml</dc:format><dc:type
           rdf:resource="http://purl.org/dc/dcmitype/StillImage" /><dc:title></dc:title></cc:Work></rdf:RDF></metadata><defs
     id="defs5240"><clipPath
       id="clipPath5250"><path
         d="m 0,304.813 630.963,0 L 630.963,0 0,0 0,304.813 z"
         id="path5252" /></clipPath></defs><g
     transform="matrix(1.25,0,0,-1.25,0,381.01625)"
     id="g5244"><g
       id="g5246"><g
         clip-path="url(#clipPath5250)"
         id="g5248"><g
           transform="translate(314.9561,167.5137)"
           id="g5254"><path
             d="m 0,0 c -14.963,0 -27.464,12.563 -30.529,29.338 l 30.529,0 0,15.991 -30.529,0 c 3.065,16.775 15.566,29.339 30.529,29.339 14.086,0 25.992,-11.133 29.897,-26.432 l 19.302,0 C 44.215,70.826 24.088,87.729 0,87.729 c -27.833,0 -50.396,-22.563 -50.396,-50.395 0,-27.834 22.563,-50.397 50.396,-50.397 24.088,0 44.215,16.904 49.199,39.494 l -19.302,0 C 25.991,11.132 14.086,0 0,0"
             id="path5256"
             style="fill:#5c81b7;fill-opacity:1;fill-rule:nonzero;stroke:none" /></g><g
           transform="translate(226.2612,77.2578)"
           id="g5258"><path
             d="m 0,0 c -0.122,5.213 -1.667,9.713 -4.637,13.503 -3.031,3.758 -7.321,5.713 -12.867,5.864 -5.335,-0.151 -9.487,-2.181 -12.457,-6.092 C -32.932,9.365 -34.645,4.939 -35.099,0 L 0,0 z m -35.099,-3.092 c -0.061,-5.76 1.41,-10.73 4.41,-14.913 2.91,-4.335 7.304,-6.532 13.185,-6.592 9.396,0.12 15.109,4.865 17.14,14.231 l 3.547,0 c -2.122,-11.398 -9.018,-17.171 -20.687,-17.322 -7.002,0.151 -12.276,2.545 -15.822,7.183 -3.577,4.607 -5.335,10.29 -5.274,17.049 -0.152,6.88 1.546,12.867 5.092,17.959 3.547,5.152 8.881,7.789 16.004,7.911 C -9.987,22.292 -4.486,19.777 -1,14.867 2.424,10.047 3.94,4.061 3.546,-3.092 l -38.645,0 z"
             id="path5260"
             style="fill:#000000;fill-opacity:1;fill-rule:nonzero;stroke:none" /></g><g
           transform="translate(238.2183,98.5801)"
           id="g5262"><path
             d="m 0,0 3.546,0 0,-9.774 0.182,0 c 0.788,3.151 2.576,5.728 5.365,7.728 2.819,2.03 6.016,3.076 9.593,3.138 2.303,0 4.319,-0.274 6.047,-0.819 1.697,-0.576 3.137,-1.349 4.319,-2.319 2.274,-2.061 3.637,-4.394 4.092,-7.001 l 0.182,0 c 2.606,6.698 7.668,10.077 15.185,10.139 4.456,0 8.048,-1.274 10.776,-3.82 2.727,-2.667 4.121,-6.819 4.182,-12.458 l 0,-32.688 -3.501,0 0,32.78 c 0,3.031 -0.439,5.486 -1.318,7.365 -0.879,1.728 -2.001,3 -3.364,3.819 -1.244,0.848 -2.486,1.394 -3.729,1.637 -1.243,0.211 -2.258,0.318 -3.046,0.318 -4.365,0 -7.941,-1.5 -10.73,-4.5 -2.849,-2.972 -4.273,-7.336 -4.273,-13.095 l 0,-28.324 -3.547,0 0,32.78 c 0,3.031 -0.439,5.455 -1.318,7.275 -0.849,1.727 -1.894,3.001 -3.137,3.819 -1.243,0.908 -2.455,1.484 -3.637,1.727 -1.244,0.211 -2.304,0.318 -3.183,0.318 -3.577,0 -6.926,-1.379 -10.048,-4.137 C 5.365,-8.941 3.667,-13.428 3.546,-19.55 l 0,-28.324 -3.546,0 L 0,0 z"
             id="path5264"
             style="fill:#000000;fill-opacity:1;fill-rule:nonzero;stroke:none" /></g><g
           transform="translate(341.1055,76.2119)"
           id="g5266"><path
             d="m 0,0 c -1.182,-0.425 -2.591,-0.728 -4.228,-0.909 -3.273,-0.395 -6.684,-0.774 -10.23,-1.137 -8.699,-0.546 -13.079,-4.244 -13.139,-11.094 0,-2.97 1.091,-5.41 3.273,-7.32 2.061,-2 5.168,-3.031 9.321,-3.091 4.091,0 7.319,0.773 9.684,2.319 2.424,1.364 4.228,3.015 5.41,4.956 1.152,1.909 1.925,3.742 2.319,5.501 0.302,1.727 0.454,2.893 0.454,3.501 l 0,8.956 C 2.167,0.924 1.212,0.363 0,0 m 6.411,-16.641 c -0.061,-1.454 0.09,-2.758 0.454,-3.91 0.303,-1.243 1.198,-1.864 2.683,-1.864 0.636,0 1.515,0.092 2.637,0.273 l 0,-3.001 c -1,-0.243 -1.971,-0.363 -2.91,-0.363 -2.728,0 -4.456,0.712 -5.183,2.137 -0.88,1.242 -1.289,2.864 -1.228,4.864 l 0,2.501 -0.181,0 c -1.122,-2.85 -3.199,-5.305 -6.229,-7.365 -3.122,-2.122 -6.972,-3.212 -11.548,-3.274 -4.608,0 -8.396,1.031 -11.366,3.092 -3.032,2 -4.578,5.471 -4.638,10.411 0,2.819 0.546,5.153 1.637,7.002 1.061,1.728 2.47,3.092 4.228,4.092 1.788,1.061 3.712,1.803 5.774,2.228 1.03,0.242 2.046,0.469 3.046,0.681 1,0.121 1.97,0.183 2.91,0.183 7.607,0.424 12.351,1.257 14.231,2.5 1.06,0.758 1.711,1.712 1.955,2.864 0.181,1.121 0.273,2.653 0.273,4.592 0,0.606 -0.153,1.439 -0.456,2.501 -0.363,1 -1.045,2.03 -2.045,3.092 -0.94,1.029 -2.273,1.955 -4.001,2.773 -1.758,0.696 -4.032,1.045 -6.82,1.045 -8.942,-0.06 -13.837,-4.318 -14.685,-12.775 l -3.546,0 c 0.666,10.548 6.743,15.822 18.231,15.822 4.365,0.061 8.214,-0.773 11.548,-2.501 3.425,-1.818 5.168,-5.138 5.229,-9.957 l 0,-27.643 z"
             id="path5268"
             style="fill:#000000;fill-opacity:1;fill-rule:nonzero;stroke:none" /></g><g
           transform="translate(394.7998,83.7588)"
           id="g5270"><path
             d="m 0,0 c -0.364,4.273 -2.031,7.502 -5.001,9.685 -3.001,2.121 -6.729,3.181 -11.185,3.181 -5.971,-0.151 -10.502,-2.363 -13.594,-6.637 -3.243,-4.213 -4.865,-9.169 -4.865,-14.867 0,-6.517 1.562,-11.867 4.684,-16.05 3.03,-4.212 7.622,-6.35 13.775,-6.41 4.517,0.06 8.275,1.454 11.276,4.183 2.97,2.667 4.758,6.243 5.365,10.729 l 3.546,0 c -0.789,-5.728 -3.017,-10.138 -6.684,-13.23 -3.728,-3.122 -8.229,-4.712 -13.503,-4.773 -7.699,0.151 -13.291,2.757 -16.776,7.819 -3.455,4.971 -5.183,10.882 -5.183,17.732 0,6.88 1.879,12.639 5.638,17.277 3.788,4.727 9.229,7.152 16.321,7.274 5.335,0 9.805,-1.273 13.413,-3.819 C 0.894,9.486 3,5.456 3.546,0 L 0,0 z"
             id="path5272"
             style="fill:#000000;fill-opacity:1;fill-rule:nonzero;stroke:none" /></g><g
           transform="translate(408.8027,66.6191)"
           id="g5274"><path
             d="m 0,0 c 0.364,-4.396 2,-7.806 4.91,-10.23 2.91,-2.486 6.547,-3.728 10.912,-3.728 1.606,0 3.303,0.182 5.092,0.545 1.757,0.243 3.379,0.743 4.865,1.501 1.546,0.757 2.788,1.818 3.728,3.182 0.97,1.303 1.455,2.94 1.455,4.911 0,2.06 -0.425,3.743 -1.274,5.046 C 28.749,2.529 27.476,3.516 25.87,4.182 24.384,4.939 22.642,5.53 20.641,5.955 18.67,6.41 16.655,6.819 14.594,7.183 12.533,7.607 10.548,8.138 8.638,8.774 6.729,9.32 4.956,10.063 3.319,11.002 c -1.607,1 -2.849,2.273 -3.728,3.819 -0.97,1.546 -1.455,3.531 -1.455,5.956 0,2.424 0.546,4.44 1.637,6.047 1,1.545 2.348,2.788 4.046,3.728 3.516,1.727 7.38,2.561 11.594,2.501 5.243,0 9.502,-1.153 12.775,-3.455 3.243,-2.396 4.895,-6.336 4.956,-11.822 l -3.546,0 c -0.061,4.365 -1.395,7.501 -4.001,9.412 -2.668,1.878 -6.063,2.818 -10.184,2.818 -3.395,0 -6.487,-0.652 -9.275,-1.955 C 4.834,27.293 3.773,26.354 2.955,25.232 2.076,24.051 1.637,22.564 1.637,20.777 c 0,-1.88 0.5,-3.395 1.5,-4.547 0.879,-1.181 2.092,-2.152 3.637,-2.91 0.758,-0.363 1.592,-0.667 2.501,-0.909 0.818,-0.272 1.697,-0.561 2.637,-0.863 0.969,-0.183 1.924,-0.364 2.864,-0.546 0.939,-0.243 1.879,-0.5 2.819,-0.773 4.88,-0.666 8.911,-1.971 12.093,-3.91 1.485,-0.97 2.667,-2.273 3.547,-3.91 0.848,-1.667 1.273,-3.744 1.273,-6.228 0,-2.487 -0.53,-4.563 -1.591,-6.23 -1.091,-1.727 -2.607,-3.121 -4.547,-4.182 -1.788,-1 -3.773,-1.712 -5.956,-2.137 -2.243,-0.454 -4.44,-0.682 -6.592,-0.682 -5.547,0 -10.078,1.47 -13.594,4.41 C -1.318,-9.791 -3.244,-5.578 -3.546,0 L 0,0 z"
             id="path5276"
             style="fill:#000000;fill-opacity:1;fill-rule:nonzero;stroke:none" /></g><g
           transform="translate(259.4736,163.6611)"
           id="g5278"><path
             d="m 0,0 c -7.881,12.792 -11.882,26.764 -12.003,41.919 0.121,15.519 4.183,29.945 12.185,43.283 l 3.273,0 C -4.426,71.805 -8.396,57.377 -8.457,41.919 -8.457,26.945 -4.577,12.974 3.182,0 L 0,0 z"
             id="path5280"
             style="fill:#000000;fill-opacity:1;fill-rule:nonzero;stroke:none" /></g><g
           transform="translate(371.7266,248.8633)"
           id="g5282"><path
             d="M 0,0 C 7.88,-12.792 11.881,-26.765 12.002,-41.919 11.881,-57.438 7.82,-71.865 -0.182,-85.202 l -3.274,0 c 7.912,13.429 11.897,27.854 11.958,43.283 0,15.033 -3.88,29.007 -11.639,41.919 L 0,0 z"
             id="path5284"
             style="fill:#000000;fill-opacity:1;fill-rule:nonzero;stroke:none" /></g></g></g></g></svg>