<?xml version="1.0" encoding="UTF-8" standalone="no"?>
<!-- Created with Inkscape (http://www.inkscape.org/) -->

<svg
   xmlns:dc="http://purl.org/dc/elements/1.1/"
   xmlns:cc="http://creativecommons.org/ns#"
   xmlns:rdf="http://www.w3.org/1999/02/22-rdf-syntax-ns#"
   xmlns:svg="http://www.w3.org/2000/svg"
   xmlns="http://www.w3.org/2000/svg"
   version="1.1"
   width="788.70374"
   height="381.01624"
   id="svg4702"
   xml:space="preserve"><metadata
     id="metadata4708"><rdf:RDF><cc:Work
         rdf:about=""><dc:format>image/svg+xml</dc:format><dc:type
           rdf:resource="http://purl.org/dc/dcmitype/StillImage" /><dc:title></dc:title></cc:Work></rdf:RDF></metadata><defs
     id="defs4706"><clipPath
       id="clipPath4736"><path
         d="m 109.08,108.365 412.891,0.191 -22.371,74.616 -367.98,0.153 -22.54,-74.96 z"
         id="path4738" /></clipPath><clipPath
       id="clipPath4800"><path
         d="m 101.07,118.744 428.823,0.206 -24.025,77.335 -380.582,0.162 -24.216,-77.703 z"
         id="path4802" /></clipPath></defs><g
     transform="matrix(1.25,0,0,-1.25,0,381.01625)"
     id="g4710"><g
       transform="translate(371.5559,108.4867)"
       id="g4712"><path
         d="M 0,0 45.431,0.021 64.105,0.03 61.255,16.388 29.971,16.38 26.078,46.88 -3.798,46.883 0,0 z"
         id="path4714"
         style="fill:#000000;fill-opacity:1;fill-rule:nonzero;stroke:none" /></g><g
       transform="translate(367.4547,159.1218)"
       id="g4716"><path
         d="m 0,0 29.701,-0.003 -1.337,10.482 29.2,-0.008 -2.371,13.61 L 2.752,24.104 -1.952,24.106 0,0 z"
         id="path4718"
         style="fill:#000000;fill-opacity:1;fill-rule:nonzero;stroke:none" /></g><g
       transform="translate(249.9867,155.3796)"
       id="g4720"><path
         d="m 0,0 -16.888,-15.032 -13.1,15.036 -30.002,0.002 -9.231,-46.987 11.587,0.005 20.618,0.01 3.893,26.02 13.463,-16.042 17.507,16.047 -2.675,-26.01 32.166,0.015 4.193,74.818 L 2.868,27.894 0,0 z"
         id="path4722"
         style="fill:#000000;fill-opacity:1;fill-rule:nonzero;stroke:none" /></g><g
       transform="translate(190.737,159.1452)"
       id="g4724"><path
         d="M 0,0 29.824,-0.004 33.438,24.141 4.745,24.152 0,0 z"
         id="path4726"
         style="fill:#000000;fill-opacity:1;fill-rule:nonzero;stroke:none" /></g><g
       transform="translate(286.7517,159.1326)"
       id="g4728"><path
         d="m 0,0 29.758,-0.004 -0.011,10.493 14.629,-0.004 0.349,-14.244 -13.629,10e-4 -1.335,0 -29.933,0.002 -2.145,-46.93 32.125,0.015 -0.031,32.002 15.31,0.001 0.781,-31.996 14.879,0.007 17.22,0.008 L 72.655,24.097 14.536,24.121 1.103,24.127 0,0 z"
         id="path4730"
         style="fill:#000000;fill-opacity:1;fill-rule:nonzero;stroke:none" /></g><g
       id="g4732"><g
         clip-path="url(#clipPath4736)"
         id="g4734"><g
           transform="translate(485.4546,183.1777)"
           id="g4740"><path
             d="m 0,0 -57.18,0.023 4.419,-24.086 29.664,-0.004 -2.409,10.474 43.729,-0.011 -0.033,0.107 c -0.569,1.898 -1.51,3.696 -2.721,5.323 -1.205,1.617 -2.68,3.068 -4.325,4.279 C 9.505,-2.687 7.693,-1.713 5.805,-1.041 3.92,-0.371 1.954,-0.001 0,0"
             id="path4742"
             style="fill:#000000;fill-opacity:1;fill-rule:nonzero;stroke:none" /></g><g
           transform="translate(507.939,155.3574)"
           id="g4744"><path
             d="m 0,0 -42.653,0.004 -2.066,0 -29.839,0.003 2.732,-14.89 45.788,0.004 3.949,-15.589 -46.876,-0.012 3.001,-16.358 64.132,0.029 c 2.191,10e-4 4.147,0.467 5.805,1.306 1.653,0.837 3.006,2.044 3.999,3.53 0.988,1.479 1.619,3.232 1.835,5.168 0.214,1.924 0.02,4.028 -0.638,6.222 L 0,0"
             id="path4746"
             style="fill:#000000;fill-opacity:1;fill-rule:nonzero;stroke:none" /></g><g
           transform="translate(183.3042,155.3857)"
           id="g4748"><path
             d="m 0,0 -27.812,0.003 -2.223,0 -30.048,0.002 -9.24,-30.727 c -0.663,-2.205 -0.86,-4.318 -0.643,-6.252 0.219,-1.945 0.855,-3.705 1.853,-5.191 1.002,-1.491 2.366,-2.703 4.035,-3.543 1.672,-0.841 3.644,-1.307 5.856,-1.306 l 48.498,0.023 3.396,16.411 -31.472,-0.009 3.973,15.652 30.737,0.003 L 0,0"
             id="path4750"
             style="fill:#000000;fill-opacity:1;fill-rule:nonzero;stroke:none" /></g><g
           transform="translate(189.0806,183.3008)"
           id="g4752"><path
             d="m 0,0 -43.205,0.018 c -1.97,0.001 -3.95,-0.37 -5.85,-1.041 -1.903,-0.673 -3.728,-1.65 -5.38,-2.862 -1.658,-1.216 -3.143,-2.671 -4.357,-4.295 -1.221,-1.633 -2.169,-3.437 -2.742,-5.343 l -3.195,-10.623 29.872,-0.004 2.668,10.51 29.365,-0.006 L 0,0"
             id="path4754"
             style="fill:#000000;fill-opacity:1;fill-rule:nonzero;stroke:none" /></g></g></g><g
       transform="translate(375.6258,121.0914)"
       id="g4756"><path
         d="M 0,0 62.132,0.03 59.882,12.705 29.395,12.696 27.321,12.695 27.047,14.817 23.208,44.526 -3.875,44.527 0,0 z"
         id="path4758"
         style="fill:#c11f3a;fill-opacity:1;fill-rule:nonzero;stroke:none" /></g><g
       transform="translate(373.6971,118.8752)"
       id="g4760"><path
         d="M 0,0 66.572,0.032 63.5,17.043 31.044,17.033 26.859,48.667 -4.085,48.67 0,0 z m -1.946,46.743 27.083,-0.001 3.839,-29.709 0.274,-2.121 2.074,0 L 61.81,14.921 64.06,2.246 1.929,2.216 -1.946,46.743 z"
         id="path4762"
         style="fill:#ffffff;fill-opacity:1;fill-rule:nonzero;stroke:none" /></g><g
       transform="translate(371.0808,173.322)"
       id="g4764"><path
         d="m 0,0 26.759,-0.004 -1.157,8.951 -0.235,1.826 1.92,-10e-4 28.215,-0.008 -1.858,10.47 L -1.849,21.256 0,0 z"
         id="path4766"
         style="fill:#c11f3a;fill-opacity:1;fill-rule:nonzero;stroke:none" /></g><g
       transform="translate(369.2853,171.432)"
       id="g4768"><path
         d="M 0,0 30.757,-0.005 29.324,10.836 59.544,10.828 57.006,24.887 -2.092,24.912 0,0 z m 1.795,1.89 -1.849,21.256 55.493,-0.022 1.859,-10.47 -28.215,0.008 -1.921,10e-4 0.236,-1.826 L 28.554,1.886 1.795,1.89 z"
         id="path4770"
         style="fill:#ffffff;fill-opacity:1;fill-rule:nonzero;stroke:none" /></g><g
       transform="translate(249.5952,167.5557)"
       id="g4772"><path
         d="m 0,0 -0.082,-0.798 -0.63,-0.565 -17.574,-15.641 -1.636,-1.455 -1.255,1.454 -12.987,15.078 -28.364,0.002 -8.949,-44.628 29.093,0.013 3.927,24.824 0.784,4.956 2.94,-3.504 12.605,-15.06 16.54,15.064 3.855,3.504 -0.513,-4.954 -2.567,-24.814 29.057,0.014 4.501,73.569 L 2.802,27.07 0,0 z"
         id="path4774"
         style="fill:#c11f3a;fill-opacity:1;fill-rule:nonzero;stroke:none" /></g><g
       transform="translate(247.6179,167.5557)"
       id="g4776"><path
         d="m 0,0 -17.569,-15.583 -13.496,15.586 -31.08,0.002 -9.932,-48.781 33.45,0.016 4.193,27.044 13.882,-16.67 18.238,16.676 -2.881,-27.034 33.407,0.017 4.506,77.552 L 3.073,28.838 0,0 z M -16.309,-17.004 1.265,-1.363 1.895,-0.798 1.977,0 4.779,27.07 30.722,27.059 26.221,-46.51 l -29.057,-0.014 2.567,24.814 0.513,4.954 -3.855,-3.504 -16.54,-15.064 -12.605,15.06 -2.94,3.504 -0.784,-4.956 -3.926,-24.824 -29.094,-0.013 8.949,44.628 28.364,-0.002 12.987,-15.078 1.256,-1.454 1.635,1.455 z"
         id="path4778"
         style="fill:#ffffff;fill-opacity:1;fill-rule:nonzero;stroke:none" /></g><g
       transform="translate(188.6148,173.3517)"
       id="g4780"><path
         d="M 0,0 26.874,-0.004 30.242,21.288 4.271,21.298 0,0 z"
         id="path4782"
         style="fill:#c11f3a;fill-opacity:1;fill-rule:nonzero;stroke:none" /></g><g
       transform="translate(186.2658,171.4563)"
       id="g4784"><path
         d="M 0,0 30.891,-0.005 34.76,24.95 5.083,24.962 0,0 z M 2.349,1.895 6.62,23.194 32.591,23.183 29.223,1.892 2.349,1.895 z"
         id="path4786"
         style="fill:#ffffff;fill-opacity:1;fill-rule:nonzero;stroke:none" /></g><g
       transform="translate(287.7552,173.3355)"
       id="g4788"><path
         d="m 0,0 26.813,-0.004 0.017,8.958 0.004,1.829 1.924,-10e-4 15.097,-0.005 1.924,0 0.051,-1.827 0.418,-14.738 0.055,-1.927 -1.98,0 -14.155,0.002 -1.391,0 -29.118,0.002 -1.975,-44.574 29.023,0.014 0.062,31.033 0.004,2.009 2.016,0 15.824,0.002 2.016,0.001 0.057,-2.01 0.879,-31.025 28.997,0.012 L 71.376,21.247 0.942,21.276 0,0 z"
         id="path4790"
         style="fill:#c11f3a;fill-opacity:1;fill-rule:nonzero;stroke:none" /></g><g
       transform="translate(285.7077,171.4428)"
       id="g4792"><path
         d="m 0,0 30.818,-0.005 -0.011,10.851 15.143,-0.004 0.372,-14.737 -14.112,0.002 -1.387,0 -31.007,0.003 -2.308,-48.721 33.366,0.016 -0.035,33.25 15.873,0.002 0.839,-33.244 0.265,0 33.071,0.016 L 75.182,24.904 56.026,24.912 1.182,24.935 0,0 z m 2.047,1.893 0.943,21.276 70.434,-0.029 5.186,-73.496 -28.998,-0.012 -0.879,31.025 -0.057,2.01 -2.016,-0.001 -15.823,-0.002 -2.016,0 -0.005,-2.01 -0.062,-31.032 -29.022,-0.014 1.974,44.574 29.119,-0.002 1.39,0 14.156,-0.002 1.98,0 -0.055,1.927 -0.419,14.737 -0.051,1.827 -1.923,10e-4 -15.098,0.005 -1.923,10e-4 L 28.877,10.847 28.86,1.889 2.047,1.893 z"
         id="path4794"
         style="fill:#ffffff;fill-opacity:1;fill-rule:nonzero;stroke:none" /></g><g
       id="g4796"><g
         clip-path="url(#clipPath4800)"
         id="g4798"><g
           transform="translate(491.7515,194.5283)"
           id="g4804"><path
             d="m 0,0 -57.411,0.023 4.103,-21.239 26.717,-0.005 -2.103,8.944 -0.43,1.825 1.917,-10e-4 43.077,-0.012 c -0.678,1.498 -1.61,2.904 -2.728,4.169 -1.113,1.26 -2.411,2.381 -3.824,3.315 C 7.91,-2.052 6.385,-1.306 4.81,-0.793 3.236,-0.281 1.611,0 0,0"
             id="path4806"
             style="fill:#c11f3a;fill-opacity:1;fill-rule:nonzero;stroke:none" /></g><g
           transform="translate(491.2456,196.291)"
           id="g4808"><path
             d="m 0,0 -59.126,0.025 4.732,-24.894 30.709,-0.004 -2.582,10.832 45.253,-0.012 -0.035,0.115 c -0.609,1.961 -1.602,3.819 -2.873,5.499 -1.264,1.67 -2.804,3.168 -4.517,4.418 C 9.853,-2.773 7.97,-1.769 6.011,-1.075 4.056,-0.384 2.02,-0.001 0,0 m -52.802,-22.979 -4.103,21.24 57.411,-0.024 c 1.611,0 3.236,-0.281 4.809,-0.793 1.576,-0.512 3.101,-1.258 4.509,-2.188 1.413,-0.934 2.711,-2.055 3.823,-3.315 1.119,-1.264 2.051,-2.67 2.729,-4.169 l -43.077,0.012 -1.917,10e-4 0.43,-1.825 2.103,-8.943 -26.717,0.004"
             id="path4810"
             style="fill:#ffffff;fill-opacity:1;fill-rule:nonzero;stroke:none" /></g><g
           transform="translate(513.4272,165.6094)"
           id="g4812"><path
             d="m 0,0 -42.341,0.002 -2.141,0.001 -29.014,0.002 2.221,-11.498 45.298,0.003 2.017,0 0.533,-2.005 4.296,-16.181 0.563,-2.118 -2.079,-0.001 -46.705,-0.014 2.449,-12.675 64.267,0.029 c 1.973,0.002 3.731,0.422 5.218,1.18 1.483,0.755 2.695,1.845 3.58,3.186 0.882,1.336 1.44,2.919 1.622,4.667 0.182,1.738 -0.008,3.64 -0.618,5.621 L 0,0"
             id="path4814"
             style="fill:#c11f3a;fill-opacity:1;fill-rule:nonzero;stroke:none" /></g><g
           transform="translate(514.8013,167.5313)"
           id="g4816"><path
             d="m 0,0 -44.18,0.005 -2.135,0 -30.896,0.003 2.933,-15.43 47.454,0.005 4.247,-16.181 -48.623,-0.013 3.232,-17.01 66.593,0.032 c 2.274,10e-4 4.299,0.485 6.01,1.359 1.706,0.871 3.095,2.126 4.109,3.671 1.009,1.538 1.643,3.361 1.845,5.373 0.2,2 -0.026,4.186 -0.735,6.464 L 0,0 m -72.649,-13.415 -2.221,11.498 29.014,-0.002 2.141,-10e-4 42.341,-0.002 9.166,-29.801 c 0.61,-1.981 0.8,-3.882 0.618,-5.621 -0.182,-1.748 -0.74,-3.331 -1.622,-4.667 -0.885,-1.341 -2.097,-2.43 -3.58,-3.186 -1.487,-0.758 -3.245,-1.178 -5.218,-1.18 l -64.267,-0.029 -2.449,12.676 46.705,0.013 2.079,10e-4 -0.563,2.118 -4.296,16.181 -0.533,2.005 -2.017,0 -45.298,-0.003"
             id="path4818"
             style="fill:#ffffff;fill-opacity:1;fill-rule:nonzero;stroke:none" /></g><g
           transform="translate(176.1401,165.6318)"
           id="g4820"><path
             d="m 0,0 -26.922,0.002 -2.302,0 -29.233,0.002 -9.239,-29.944 c -0.615,-1.993 -0.806,-3.903 -0.623,-5.65 0.184,-1.757 0.747,-3.347 1.636,-4.688 0.894,-1.347 2.117,-2.442 3.614,-3.2 1.501,-0.759 3.274,-1.18 5.265,-1.179 l 48.094,0.022 2.767,12.719 -30.678,-0.01 -2.088,-0.001 0.566,2.128 4.325,16.249 0.536,2.014 2.024,0 29.749,0.002 L 0,0"
             id="path4822"
             style="fill:#c11f3a;fill-opacity:1;fill-rule:nonzero;stroke:none" /></g><g
           transform="translate(178.5405,167.5625)"
           id="g4824"><path
             d="m 0,0 -28.821,0.002 -2.294,0 -31.139,0.003 -9.935,-31.877 c -0.714,-2.29 -0.942,-4.486 -0.738,-6.496 0.205,-2.022 0.846,-3.853 1.865,-5.398 1.024,-1.551 2.428,-2.812 4.152,-3.685 1.727,-0.876 3.771,-1.362 6.067,-1.36 l 50.382,0.024 3.659,17.067 -32.66,-0.009 4.274,16.249 31.87,0.002 L 0,0 m -60.204,-46.588 c -1.991,-10e-4 -3.765,0.42 -5.266,1.18 -1.497,0.758 -2.719,1.852 -3.613,3.199 -0.89,1.342 -1.452,2.932 -1.637,4.688 -0.182,1.748 0.009,3.658 0.623,5.65 l 9.24,29.944 29.233,-0.002 2.302,0 26.922,-0.002 -2.509,-11.534 -29.749,-0.002 -2.025,0 -0.536,-2.013 -4.324,-16.249 -0.566,-2.128 2.088,10e-4 30.677,0.009 -2.766,-12.718 -48.094,-0.023"
             id="path4826"
             style="fill:#ffffff;fill-opacity:1;fill-rule:nonzero;stroke:none" /></g><g
           transform="translate(182.4536,194.6543)"
           id="g4828"><path
             d="m 0,0 -42.926,0.018 c -1.777,0.001 -3.569,-0.334 -5.291,-0.942 -1.725,-0.609 -3.383,-1.492 -4.885,-2.587 -1.507,-1.098 -2.86,-2.411 -3.968,-3.876 -1.114,-1.471 -1.982,-3.097 -2.511,-4.812 l -2.806,-9.093 26.917,-0.005 2.389,8.977 0.487,1.831 1.932,-10e-4 28.378,-0.008 L 0,0"
             id="path4830"
             style="fill:#c11f3a;fill-opacity:1;fill-rule:nonzero;stroke:none" /></g><g
           transform="translate(184.73,196.4219)"
           id="g4832"><path
             d="m 0,0 -44.694,0.02 c -2.036,0 -4.089,-0.382 -6.06,-1.075 -1.976,-0.695 -3.875,-1.703 -5.597,-2.954 -1.729,-1.256 -3.282,-2.759 -4.556,-4.435 -1.281,-1.687 -2.282,-3.552 -2.897,-5.522 l -3.425,-10.99 30.949,-0.005 2.859,10.872 30.398,-0.008 L 0,0 m -64.663,-23.06 2.806,9.093 c 0.529,1.715 1.397,3.341 2.51,4.813 1.109,1.465 2.461,2.777 3.969,3.876 1.502,1.094 3.159,1.977 4.885,2.587 1.722,0.607 3.514,0.942 5.291,0.941 l 42.926,-0.018 -2.285,-10.498 -28.377,0.008 -1.932,10e-4 -0.487,-1.831 -2.389,-8.976 -26.917,0.004"
             id="path4834"
             style="fill:#ffffff;fill-opacity:1;fill-rule:nonzero;stroke:none" /></g></g></g></g></svg>