<?xml version="1.0" encoding="UTF-8" standalone="no"?>
<!-- Created with Inkscape (http://www.inkscape.org/) -->

<svg
   xmlns:dc="http://purl.org/dc/elements/1.1/"
   xmlns:cc="http://creativecommons.org/ns#"
   xmlns:rdf="http://www.w3.org/1999/02/22-rdf-syntax-ns#"
   xmlns:svg="http://www.w3.org/2000/svg"
   xmlns="http://www.w3.org/2000/svg"
   version="1.1"
   width="788.70374"
   height="381.01501"
   id="svg3952"
   xml:space="preserve"><metadata
     id="metadata3958"><rdf:RDF><cc:Work
         rdf:about=""><dc:format>image/svg+xml</dc:format><dc:type
           rdf:resource="http://purl.org/dc/dcmitype/StillImage" /><dc:title></dc:title></cc:Work></rdf:RDF></metadata><defs
     id="defs3956"><clipPath
       id="clipPath3984"><path
         d="m 0,304.812 630.963,0 L 630.963,0 0,0 0,304.812 z"
         id="path3986" /></clipPath></defs><g
     transform="matrix(1.25,0,0,-1.25,0,381.015)"
     id="g3960"><g
       transform="translate(401.124,160.2485)"
       id="g3962"><path
         d="m 0,0 -31.371,0 0,-47.058 62.743,0 0,15.687 L 0,-31.371 0,0 z"
         id="path3964"
         style="fill:#000000;fill-opacity:1;fill-rule:nonzero;stroke:none" /></g><g
       transform="translate(369.7529,191.6206)"
       id="g3966"><path
         d="m 0,0 0,-27.303 31.371,0 0,11.617 31.372,0 L 62.743,0 0,0 z"
         id="path3968"
         style="fill:#000000;fill-opacity:1;fill-rule:nonzero;stroke:none" /></g><g
       transform="translate(246.3301,191.6206)"
       id="g3970"><path
         d="m 0,0 0,-31.372 -15.687,-15.802 -15.685,15.802 -31.372,0 0,-47.058 31.372,0 0,25.243 15.685,-15.8 15.687,15.8 0,-25.243 31.372,0 0,78.43 L 0,0 z"
         id="path3972"
         style="fill:#000000;fill-opacity:1;fill-rule:nonzero;stroke:none" /></g><path
       d="m 214.958,191.621 -31.372,0 0,-27.303 31.372,0 0,27.303 z"
       id="path3974"
       style="fill:#000000;fill-opacity:1;fill-rule:nonzero;stroke:none" /><g
       transform="translate(284.6377,191.6206)"
       id="g3976"><path
         d="m 0,0 0,-27.303 31.371,0 0,11.617 15.686,0 0,-15.686 -14.286,0 -1.4,0 -31.371,0 0,-47.058 31.371,0 0,31.373 15.686,0 0,-31.373 31.373,0 L 78.43,0 0,0 z"
         id="path3978"
         style="fill:#000000;fill-opacity:1;fill-rule:nonzero;stroke:none" /></g><g
       id="g3980"><g
         clip-path="url(#clipPath3984)"
         id="g3982"><g
           transform="translate(501.5527,191.6206)"
           id="g3988"><path
             d="m 0,0 -62.871,0 0,-27.303 31.371,0 0,11.617 47.059,0 0,0.127 C 15.559,-6.965 8.593,0 0,0"
             id="path3990"
             style="fill:#000000;fill-opacity:1;fill-rule:nonzero;stroke:none" /></g><g
           transform="translate(472.2227,160.2485)"
           id="g3992"><path
             d="m 0,0 -2.17,0 -31.371,0 0,-15.685 47.059,0 0,-15.686 -47.059,0 0,-15.687 62.871,0 c 8.593,0 15.559,6.966 15.559,15.56 L 44.889,0 0,0 z"
             id="path3994"
             style="fill:#000000;fill-opacity:1;fill-rule:nonzero;stroke:none" /></g><g
           transform="translate(176.5947,144.564)"
           id="g3996"><path
             d="m 0,0 0,15.685 -29.055,0 -2.316,0 -31.372,0 0,-31.498 c 0,-8.594 6.965,-15.56 15.557,-15.56 l 47.186,0 0,15.686 -31.371,0 0,15.687 L 0,0 z"
             id="path3998"
             style="fill:#000000;fill-opacity:1;fill-rule:nonzero;stroke:none" /></g><g
           transform="translate(129.4092,191.6206)"
           id="g4000"><path
             d="m 0,0 c -8.592,0 -15.558,-6.965 -15.558,-15.559 l 0,-11.744 31.372,0 0,11.617 31.372,0 L 47.186,0 0,0 z"
             id="path4002"
             style="fill:#000000;fill-opacity:1;fill-rule:nonzero;stroke:none" /></g></g></g></g></svg>