<?xml version="1.0" encoding="UTF-8" standalone="no"?>
<!-- Created with Inkscape (http://www.inkscape.org/) -->

<svg
   xmlns:dc="http://purl.org/dc/elements/1.1/"
   xmlns:cc="http://creativecommons.org/ns#"
   xmlns:rdf="http://www.w3.org/1999/02/22-rdf-syntax-ns#"
   xmlns:svg="http://www.w3.org/2000/svg"
   xmlns="http://www.w3.org/2000/svg"
   version="1.1"
   width="788.70374"
   height="381.01624"
   id="svg4446"
   xml:space="preserve"><metadata
     id="metadata4452"><rdf:RDF><cc:Work
         rdf:about=""><dc:format>image/svg+xml</dc:format><dc:type
           rdf:resource="http://purl.org/dc/dcmitype/StillImage" /><dc:title></dc:title></cc:Work></rdf:RDF></metadata><defs
     id="defs4450"><clipPath
       id="clipPath4460"><path
         d="m 151.033,159.302 -16.895,-60.069 380.013,8.448 -3.674,89.897 -359.444,-38.276 z"
         id="path4462" /></clipPath><clipPath
       id="clipPath4472"><path
         d="m 133.705,167.303 -16.893,-60.069 380.003,8.448 -3.673,89.897 -359.437,-38.276 z"
         id="path4474" /></clipPath></defs><g
     transform="matrix(1.25,0,0,-1.25,0,381.01625)"
     id="g4454"><g
       transform="translate(-4.5526348,10.243428)"
       id="g4456"><g
         clip-path="url(#clipPath4460)"
         id="g4458"><g
           transform="translate(489.9717,195.3945)"
           id="g4464"><path
             d="m 0,0 -75.402,-8.029 -1.287,-27.211 37.099,2.916 0.173,12.155 60.612,5.493 -0.006,0.138 c -0.095,2.34 -0.777,4.503 -1.924,6.41 -1.141,1.896 -2.74,3.535 -4.678,4.844 -1.925,1.3 -4.184,2.271 -6.661,2.843 C 5.463,0.126 2.785,0.297 0,0 m -305.842,-56.425 -18.898,-1.404 -1.469,-0.109 -19.277,-1.434 -6.853,-24.365 c -0.478,-1.701 -0.672,-3.315 -0.61,-4.781 0.062,-1.471 0.38,-2.794 0.925,-3.901 0.546,-1.112 1.322,-2.007 2.294,-2.618 0.976,-0.613 2.15,-0.941 3.491,-0.91 l 30.795,0.683 3.272,13.237 -20.633,-0.828 3.334,12.592 20.499,1.179 3.13,12.659 m 187.836,13.959 -31.77,-2.361 -5.231,-46.869 68.403,1.52 0.923,17.239 -34.991,-1.404 2.666,31.875 m 139.912,10.398 -58.876,-4.376 -2.681,-0.2 -37.235,-2.766 -0.775,-16.376 57.785,3.322 0.06,-17.829 -58.642,-2.353 -0.821,-17.368 81.209,1.806 c 3.017,0.067 5.893,0.663 8.507,1.687 2.622,1.027 4.973,2.482 6.932,4.257 1.961,1.777 3.524,3.87 4.569,6.172 1.044,2.297 1.571,4.795 1.465,7.382 l -1.497,36.642 m -321.691,0.145 -29.832,-3.178 c -1.302,-0.138 -2.626,-0.589 -3.905,-1.285 -1.278,-0.695 -2.514,-1.635 -3.642,-2.754 -1.128,-1.118 -2.151,-2.418 -3.004,-3.834 -0.853,-1.418 -1.538,-2.954 -1.985,-4.545 l -2.47,-8.78 19.249,1.513 2.358,8.91 20.236,1.834 2.995,12.119 m 26.142,2.783 -21.508,-2.291 -5.202,-21.388 21.781,1.712 4.929,21.967 m 46.945,4.999 -24.164,-2.573 -5.318,-26.02 -14.614,-14.254 -8.529,12.534 -21.822,-1.622 -9.503,-39.08 22.303,0.496 4.917,21.913 8.559,-13.237 14.842,14.425 -4.614,-22.575 25.233,0.562 12.71,69.431 m 73.834,7.863 -68.291,-7.272 -4.163,-23.372 26.453,2.079 1.607,10.366 13.777,1.249 -2.038,-14.255 -12.689,-0.944 -1.227,-0.091 -26.519,-1.97 -7.652,-42.955 27.299,0.606 4.64,29.922 14.059,0.809 -4.346,-30.412 30.226,0.672 8.864,75.568 m 70.618,7.519 -64.269,-6.844 -2.829,-25.347 31.673,2.489 0.943,11.284 33.659,3.051 0.823,15.367"
             id="path4466"
             style="fill:#000000;fill-opacity:1;fill-rule:nonzero;stroke:none" /></g></g></g><g
       transform="translate(-4.5526348,10.243428)"
       id="g4468"><g
         clip-path="url(#clipPath4472)"
         id="g4470"><g
           transform="translate(472.6816,201.3135)"
           id="g4476"><path
             d="m 0,0 -73.307,-7.66 -1.053,-23.278 32.312,2.608 0.164,10.022 0.034,2.06 2.417,0.224 57.607,5.338 c -0.379,1.757 -1.153,3.368 -2.241,4.778 -1.084,1.403 -2.479,2.609 -4.106,3.564 -1.619,0.951 -3.468,1.655 -5.469,2.061 C 4.366,0.121 2.222,0.232 0,0 m -84.586,-8.84 -60.258,-6.297 -2.383,-21.68 27.585,2.225 0.796,9.309 0.164,1.913 2.071,0.192 31.391,2.909 0.634,11.429 m -70.415,-7.357 -64.884,-6.781 -3.532,-19.987 23.054,1.861 1.339,8.553 0.275,1.76 1.722,0.16 13.758,1.275 1.792,0.167 -0.253,-1.794 -2.019,-14.284 -0.261,-1.845 -1.815,-0.132 -12.706,-0.916 -1.228,-0.09 -24.91,-1.798 -6.958,-39.375 23.79,0.584 4.369,27.904 0.289,1.851 1.756,0.105 14.04,0.837 1.83,0.11 -0.266,-1.888 -4.025,-28.476 26.329,0.646 8.514,71.553 m -73.63,-7.695 -21.1,-2.204 -4.963,-24.443 -0.143,-0.705 -0.548,-0.53 -14.65,-14.277 -1.324,-1.289 -0.786,1.171 -8.184,12.103 -19.895,-1.437 -8.669,-35.816 19.444,0.476 4.535,20.105 0.928,4.11 1.815,-2.78 7.798,-11.984 13.473,13.097 3.239,3.145 -0.862,-4.248 -4.222,-20.789 21.985,0.541 12.129,65.754 m -46.817,-4.891 -18.784,-1.963 -4.426,-18.29 18.987,1.532 4.223,18.721 m -26.072,-2.725 -28.542,-2.982 c -1.132,-0.119 -2.286,-0.511 -3.402,-1.118 -1.115,-0.607 -2.194,-1.427 -3.181,-2.406 -0.985,-0.976 -1.879,-2.112 -2.624,-3.349 -0.746,-1.238 -1.342,-2.578 -1.731,-3.966 l -2.042,-7.288 16.777,1.353 1.956,7.357 0.403,1.515 1.25,0.117 18.897,1.752 2.239,9.015 m 320.701,-0.933 -56.21,-4.059 -2.697,-0.195 -35.009,-2.528 -0.554,-12.231 55.36,3.303 2.613,0.155 0.012,-2.236 0.102,-17.872 0.013,-2.318 -2.665,-0.1 -56.395,-2.137 -0.586,-12.963 78.666,1.932 c 2.618,0.064 5.115,0.587 7.384,1.48 2.276,0.896 4.318,2.161 6.02,3.703 1.703,1.545 3.063,3.361 3.975,5.359 0.911,1.994 1.373,4.16 1.287,6.406 l -1.316,34.301 m -139.5,-10.073 -27.753,-2.004 -4.722,-42.969 63.93,1.57 0.711,12.807 -32.739,-1.241 -2.156,-0.082 0.179,2.087 2.55,29.832 m -187.293,-13.523 -17.58,-1.27 -1.471,-0.105 -18.088,-1.307 -6.415,-22.887 c -0.415,-1.482 -0.58,-2.889 -0.523,-4.166 0.057,-1.282 0.337,-2.432 0.814,-3.396 0.479,-0.967 1.157,-1.745 2.004,-2.274 0.851,-0.532 1.873,-0.813 3.038,-0.785 l 29.412,0.722 2.443,9.84 -19.299,-0.731 -1.276,-0.048 0.431,1.62 3.342,12.57 0.42,1.582 1.266,0.076 19.143,1.142 2.339,9.417"
             id="path4478"
             style="fill:#9d1d58;fill-opacity:1;fill-rule:nonzero;stroke:none" /></g><g
           transform="translate(472.6362,203.3955)"
           id="g4480"><path
             d="m 0,0 -75.401,-8.029 -1.287,-27.211 37.099,2.916 0.172,12.154 60.612,5.494 -0.006,0.137 c -0.095,2.34 -0.777,4.504 -1.924,6.41 -1.141,1.897 -2.74,3.536 -4.678,4.844 -1.925,1.301 -4.184,2.272 -6.662,2.843 C 5.463,0.125 2.785,0.296 0,0 m -74.315,-33.02 1.054,23.278 73.306,7.66 c 2.223,0.232 4.367,0.121 6.358,-0.283 2.002,-0.406 3.85,-1.11 5.47,-2.061 1.627,-0.955 3.022,-2.161 4.105,-3.564 1.089,-1.41 1.863,-3.021 2.242,-4.778 l -57.607,-5.338 -2.417,-0.224 -0.034,-2.06 -0.164,-10.022 -32.313,-2.608 m -7.931,24.261 -64.267,-6.844 -2.829,-25.348 31.672,2.49 0.944,11.283 33.658,3.051 0.822,15.368 m -64.935,-30.14 2.382,21.68 60.258,6.297 -0.634,-11.429 -31.39,-2.909 -2.072,-0.192 -0.163,-1.913 -0.796,-9.309 -27.585,-2.225 m -5.681,22.621 -68.291,-7.273 -4.163,-23.371 26.453,2.078 1.608,10.367 13.776,1.248 -2.038,-14.254 -12.689,-0.944 -1.227,-0.091 -26.519,-1.97 -7.652,-42.956 27.299,0.607 4.64,29.921 14.059,0.809 -4.347,-30.412 30.227,0.672 8.864,75.569 m -70.51,-28.769 3.533,19.987 64.883,6.781 -8.514,-71.553 -26.328,-0.647 4.024,28.477 0.267,1.888 -1.83,-0.11 -14.04,-0.838 -1.756,-0.104 -0.29,-1.851 -4.369,-27.904 -23.79,-0.584 6.958,39.375 24.91,1.798 1.229,0.09 12.705,0.916 1.816,0.132 0.261,1.845 2.018,14.284 0.254,1.794 -1.793,-0.167 -13.758,-1.275 -1.721,-0.16 -0.276,-1.76 -1.339,-8.554 -23.054,-1.86 m -3.324,20.906 -24.163,-2.573 -5.318,-26.02 -14.615,-14.254 -8.522,12.534 -21.828,-1.622 -9.504,-39.081 22.311,0.496 4.917,21.915 8.551,-13.239 14.843,14.426 -4.614,-22.575 25.232,0.561 12.71,69.432 m -44.617,-45.281 1.323,1.289 14.65,14.277 0.548,0.53 0.143,0.705 4.963,24.443 21.101,2.204 -12.129,-65.755 -21.985,-0.54 4.221,20.789 0.862,4.248 -3.239,-3.145 -13.473,-13.097 -7.797,11.984 -1.816,2.78 -0.927,-4.11 -4.536,-20.105 -19.443,-0.476 8.669,35.816 19.894,1.437 8.185,-12.103 0.786,-1.171 m -2.321,40.283 -21.514,-2.291 -5.202,-21.39 21.787,1.713 4.929,21.968 m -24.979,-21.979 4.426,18.29 18.784,1.963 -4.223,-18.721 -18.987,-1.532 m -1.169,19.194 -29.832,-3.177 c -1.3,-0.138 -2.623,-0.588 -3.902,-1.285 -1.276,-0.694 -2.512,-1.634 -3.64,-2.753 -1.128,-1.119 -2.151,-2.418 -3.004,-3.834 -0.853,-1.418 -1.537,-2.955 -1.985,-4.547 l -2.469,-8.779 19.243,1.513 2.359,8.91 20.234,1.834 2.996,12.118 m -43.215,-22.775 2.043,7.288 c 0.389,1.388 0.985,2.728 1.73,3.966 0.745,1.237 1.639,2.373 2.625,3.349 0.986,0.979 2.065,1.799 3.181,2.406 1.116,0.607 2.27,0.999 3.402,1.118 l 28.542,2.982 -2.239,-9.015 -18.897,-1.752 -1.251,-0.117 -0.403,-1.515 -1.955,-7.357 -16.778,-1.353 m 364.903,22.631 -58.864,-4.375 -2.692,-0.201 -37.235,-2.766 -0.775,-16.377 57.784,3.322 0.06,-17.828 -58.642,-2.353 -0.821,-17.367 81.208,1.805 c 3.018,0.067 5.894,0.664 8.507,1.687 2.622,1.027 4.974,2.481 6.933,4.256 1.961,1.778 3.523,3.871 4.569,6.172 1.044,2.298 1.57,4.795 1.465,7.382 l -1.497,36.643 m -97.15,-21.468 0.554,12.231 35.009,2.528 2.698,0.195 56.209,4.059 1.316,-34.301 c 0.086,-2.246 -0.376,-4.412 -1.287,-6.406 -0.912,-1.998 -2.271,-3.814 -3.975,-5.359 -1.702,-1.542 -3.743,-2.807 -6.019,-3.703 -2.269,-0.893 -4.766,-1.416 -7.385,-1.48 l -78.666,-1.932 0.587,12.963 56.395,2.137 2.664,0.1 -0.013,2.317 -0.101,17.873 -0.013,2.236 -2.613,-0.155 -55.36,-3.303 m -42.761,11.069 -31.77,-2.36 -5.23,-46.869 68.402,1.52 0.923,17.238 -34.991,-1.404 2.666,31.875 m -34.744,-47.102 4.722,42.969 27.754,2.004 -2.551,-29.832 -0.178,-2.087 2.156,0.082 32.738,1.241 -0.711,-12.807 -63.93,-1.57 m -153.09,33.143 -18.898,-1.404 -1.469,-0.109 -19.272,-1.432 -6.853,-24.366 c -0.478,-1.7 -0.671,-3.315 -0.61,-4.781 0.062,-1.471 0.379,-2.794 0.923,-3.901 0.546,-1.112 1.32,-2.008 2.292,-2.619 0.976,-0.613 2.15,-0.94 3.49,-0.91 l 30.795,0.685 3.272,13.237 -20.633,-0.828 3.334,12.591 20.499,1.179 3.13,12.658 m -39.949,-37.883 c -1.165,-0.028 -2.187,0.253 -3.037,0.785 -0.848,0.529 -1.525,1.307 -2.004,2.274 -0.477,0.964 -0.758,2.114 -0.815,3.396 -0.057,1.277 0.109,2.684 0.524,4.166 l 6.414,22.887 18.088,1.307 1.471,0.105 17.581,1.27 -2.34,-9.417 -19.143,-1.142 -1.266,-0.076 -0.42,-1.582 -3.342,-12.57 -0.43,-1.62 1.276,0.047 19.299,0.732 -2.444,-9.84 -29.412,-0.722"
             id="path4482"
             style="fill:#ffffff;fill-opacity:1;fill-rule:nonzero;stroke:none" /></g></g></g></g></svg>