<?xml version="1.0" encoding="UTF-8" standalone="no"?>
<!-- Created with Inkscape (http://www.inkscape.org/) -->

<svg
   xmlns:dc="http://purl.org/dc/elements/1.1/"
   xmlns:cc="http://creativecommons.org/ns#"
   xmlns:rdf="http://www.w3.org/1999/02/22-rdf-syntax-ns#"
   xmlns:svg="http://www.w3.org/2000/svg"
   xmlns="http://www.w3.org/2000/svg"
   version="1.1"
   width="788.70374"
   height="381.01501"
   id="svg2985"
   xml:space="preserve"><metadata
     id="metadata2991"><rdf:RDF><cc:Work
         rdf:about=""><dc:format>image/svg+xml</dc:format><dc:type
           rdf:resource="http://purl.org/dc/dcmitype/StillImage" /><dc:title></dc:title></cc:Work></rdf:RDF></metadata><defs
     id="defs2989"><clipPath
       id="clipPath3005"><path
         d="m 0,304.812 630.963,0 L 630.963,0 0,0 0,304.812 z"
         id="path3007" /></clipPath></defs><g
     transform="matrix(1.25,0,0,-1.25,0,381.015)"
     id="g2993"><path
       d="m 164.005,191.621 -4.601,0 0,-3.191 4.601,0 0,3.191 z"
       id="path2995"
       style="fill:#000000;fill-opacity:1;fill-rule:nonzero;stroke:none" /><path
       d="m 155.452,191.621 -4.6,0 0,-3.191 4.6,0 0,3.191 z"
       id="path2997"
       style="fill:#000000;fill-opacity:1;fill-rule:nonzero;stroke:none" /><path
       d="m 172.557,191.621 -4.601,0 0,-3.191 4.601,0 0,3.191 z"
       id="path2999"
       style="fill:#000000;fill-opacity:1;fill-rule:nonzero;stroke:none" /><g
       id="g3001"><g
         clip-path="url(#clipPath3005)"
         id="g3003"><g
           transform="translate(173.5566,191.6211)"
           id="g3009"><path
             d="m 0,0 0,-4.191 -6.601,0 0,4.191 -1.951,0 0,-4.191 -6.6,0 0,4.191 -1.952,0 0,-4.191 -6.6,0 0,4.191 -20.443,0 c -8.592,0 -15.558,-6.966 -15.558,-15.559 l 0,-11.745 0.162,0 c 3.152,1.881 6.644,3.249 10.361,3.984 l 0,7.24 c 0,0.276 0.224,0.5 0.5,0.5 0.277,0 0.5,-0.224 0.5,-0.5 l 0,-7.062 c 1.578,0.261 3.193,0.406 4.836,0.432 l 10e-4,6.63 c 0,0.276 0.224,0.5 0.5,0.5 0.277,0 0.5,-0.224 0.5,-0.5 l -10e-4,-6.63 c 1.645,-0.024 3.26,-0.168 4.837,-0.428 l 10e-4,7.058 c 0,0.276 0.224,0.5 0.5,0.5 0.277,0 0.5,-0.224 0.5,-0.5 l -10e-4,-7.236 c 2.878,-0.567 5.62,-1.515 8.176,-2.785 l 0,10.415 31.371,0 L 3.038,0 0,0 z"
             id="path3011"
             style="fill:#000000;fill-opacity:1;fill-rule:nonzero;stroke:none" /></g><g
           transform="translate(116.0625,164.3174)"
           id="g3013"><path
             d="m 0,0 29.161,0 0,0.083 c -2.546,1.315 -5.289,2.302 -8.176,2.889 l 0,-1.606 c 0,-0.276 -0.223,-0.5 -0.5,-0.5 -0.276,0 -0.5,0.224 -0.5,0.5 l 0,1.784 c -1.576,0.268 -3.191,0.419 -4.837,0.444 l 0,-2.228 c 0,-0.276 -0.223,-0.5 -0.5,-0.5 -0.276,0 -0.5,0.224 -0.5,0.5 l 0,2.228 C 12.503,3.567 10.889,3.415 9.313,3.146 l 0,-1.78 c 0,-0.276 -0.224,-0.5 -0.5,-0.5 -0.277,0 -0.5,0.224 -0.5,0.5 l 0,1.602 C 5.373,2.368 2.584,1.354 0,0"
             id="path3015"
             style="fill:#000000;fill-opacity:1;fill-rule:nonzero;stroke:none" /></g><g
           transform="translate(493.3174,121.4219)"
           id="g3017"><path
             d="m 0,0 11.389,0 c 0.551,0 1,0.448 1,1 0,0.552 -0.449,1 -1,1 L 0,2 C -0.552,2 -1,1.552 -1,1 -1,0.448 -0.552,0 0,0"
             id="path3019"
             style="fill:#000000;fill-opacity:1;fill-rule:nonzero;stroke:none" /></g><g
           transform="translate(493.3174,124.4219)"
           id="g3021"><path
             d="m 0,0 11.389,0 c 1.102,0 2,-0.897 2,-2 0,-1.103 -0.898,-2 -2,-2 L 0,-4 c -1.103,0 -2,0.897 -2,2 0,1.103 0.897,2 2,2 m 0,9.506 16.389,0 c 1.102,0 2,-0.898 2,-2 0,-1.103 -0.898,-2 -2,-2 L 0,5.506 c -1.103,0 -2,0.897 -2,2 0,1.102 0.897,2 2,2 m 0,9.506 16.389,0 c 1.102,0 2,-0.898 2,-2 0,-1.103 -0.898,-2 -2,-2 L 0,15.012 c -1.103,0 -2,0.897 -2,2 0,1.102 0.897,2 2,2 m 0,9.506 16.389,0 c 1.102,0 2,-0.898 2,-2 0,-1.103 -0.898,-2 -2,-2 L 0,24.518 c -1.103,0 -2,0.897 -2,2 0,1.102 0.897,2 2,2 M -17.51,4.456 c 1.848,-6.337 5.719,-11.82 10.875,-15.686 l 14.87,0 c 8.593,0 15.559,6.965 15.559,15.558 l 0,31.499 -31.836,0 c -4.741,-4.018 -8.227,-9.472 -9.776,-15.685 l 10.241,0 0,-15.686 -9.933,0 z"
             id="path3023"
             style="fill:#000000;fill-opacity:1;fill-rule:nonzero;stroke:none" /></g><g
           transform="translate(443.8066,156.9336)"
           id="g3025"><path
             d="m 0,0 19.938,0 0,-12.37 10.728,0 c 1.477,6.132 4.769,11.564 9.281,15.685 l -11.531,0 -2.17,0 -22.932,0 L 0,0 z"
             id="path3027"
             style="fill:#000000;fill-opacity:1;fill-rule:nonzero;stroke:none" /></g><g
           transform="translate(493.3174,130.9277)"
           id="g3029"><path
             d="m 0,0 16.389,0 c 0.551,0 1,0.448 1,1 0,0.552 -0.449,1 -1,1 L 0,2 C -0.552,2 -1,1.552 -1,1 -1,0.448 -0.552,0 0,0"
             id="path3031"
             style="fill:#000000;fill-opacity:1;fill-rule:nonzero;stroke:none" /></g><g
           transform="translate(493.3174,149.9395)"
           id="g3033"><path
             d="m 0,0 16.389,0 c 0.551,0 1,0.448 1,1 0,0.552 -0.449,1 -1,1 L 0,2 C -0.552,2 -1,1.552 -1,1 -1,0.448 -0.552,0 0,0"
             id="path3035"
             style="fill:#000000;fill-opacity:1;fill-rule:nonzero;stroke:none" /></g><g
           transform="translate(493.3174,140.4336)"
           id="g3037"><path
             d="m 0,0 16.389,0 c 0.551,0 1,0.448 1,1 0,0.552 -0.449,1 -1,1 L 0,2 C -0.552,2 -1,1.552 -1,1 -1,0.448 -0.552,0 0,0"
             id="path3039"
             style="fill:#000000;fill-opacity:1;fill-rule:nonzero;stroke:none" /></g><g
           transform="translate(445.707,160.249)"
           id="g3041"><path
             d="m 0,0 -7.025,0 0,-7.026 L 0,0 z"
             id="path3043"
             style="fill:#000000;fill-opacity:1;fill-rule:nonzero;stroke:none" /></g><g
           transform="translate(463.2197,122.335)"
           id="g3045"><path
             d="m 0,0 c -0.846,0 -1.533,-0.688 -1.533,-1.533 0,-0.846 0.687,-1.533 1.533,-1.533 0.846,0 1.533,0.687 1.533,1.533 C 1.533,-0.688 0.846,0 0,0"
             id="path3047"
             style="fill:#000000;fill-opacity:1;fill-rule:nonzero;stroke:none" /></g><g
           transform="translate(450.585,122.335)"
           id="g3049"><path
             d="m 0,0 c -0.846,0 -1.533,-0.688 -1.533,-1.533 0,-0.846 0.687,-1.533 1.533,-1.533 0.846,0 1.533,0.687 1.533,1.533 C 1.533,-0.688 0.846,0 0,0"
             id="path3051"
             style="fill:#000000;fill-opacity:1;fill-rule:nonzero;stroke:none" /></g><g
           transform="translate(463.2197,118.2686)"
           id="g3053"><path
             d="M 0,0 C -1.396,0 -2.533,1.137 -2.533,2.533 -2.533,3.93 -1.396,5.066 0,5.066 1.396,5.066 2.533,3.93 2.533,2.533 2.533,1.137 1.396,0 0,0 m -12.635,0 c -1.396,0 -2.533,1.137 -2.533,2.533 0,1.397 1.137,2.533 2.533,2.533 1.397,0 2.533,-1.136 2.533,-2.533 C -10.102,1.137 -11.238,0 -12.635,0 m 24.184,10.609 -36.087,0 0,-15.686 46.384,0 C 16.954,-1.083 13.304,4.37 11.549,10.609"
             id="path3055"
             style="fill:#000000;fill-opacity:1;fill-rule:nonzero;stroke:none" /></g><g
           transform="translate(446.3438,154.3408)"
           id="g3057"><path
             d="m 0,0 c 0.195,-0.195 0.195,-0.512 0,-0.707 l -5.596,-5.597 c -0.097,-0.097 -0.225,-0.146 -0.353,-0.146 -0.128,0 -0.256,0.049 -0.354,0.146 -0.195,0.196 -0.195,0.512 0,0.707 L -0.707,0 C -0.512,0.195 -0.195,0.195 0,0 m 5.836,0 c 0.195,-0.195 0.195,-0.512 0,-0.707 L 0.241,-6.304 C 0.144,-6.401 0.016,-6.45 -0.112,-6.45 c -0.128,0 -0.256,0.049 -0.354,0.146 -0.195,0.196 -0.195,0.512 0,0.707 L 5.129,0 c 0.195,0.195 0.512,0.195 0.707,0 m -13.498,-2.532 0,-7.245 24.062,0 0,11.37 -19.937,0 -4.125,-4.125 z"
             id="path3059"
             style="fill:#000000;fill-opacity:1;fill-rule:nonzero;stroke:none" /></g><g
           transform="translate(385.9277,188.166)"
           id="g3061"><path
             d="m 0,0 c -6.112,0 -11.734,-2.129 -16.175,-5.678 l 0,-18.171 3.193,0 c 1.05,6.224 6.464,10.985 12.982,10.985 6.518,0 11.932,-4.761 12.982,-10.985 l 2.214,0 0,11.619 6.822,0 C 17.425,-4.894 9.275,0 0,0"
             id="path3063"
             style="fill:#000000;fill-opacity:1;fill-rule:nonzero;stroke:none" /></g><g
           transform="translate(385.9277,166.334)"
           id="g3065"><path
             d="M 0,0 C -1.396,0 -2.533,1.137 -2.533,2.533 -2.533,3.93 -1.396,5.066 0,5.066 1.396,5.066 2.533,3.93 2.533,2.533 2.533,1.137 1.396,0 0,0 m 0,7.968 c -5.966,0 -10.934,-4.314 -11.972,-9.985 l 23.944,0 C 10.934,3.654 5.966,7.968 0,7.968"
             id="path3067"
             style="fill:#000000;fill-opacity:1;fill-rule:nonzero;stroke:none" /></g><g
           transform="translate(385.9277,170.4004)"
           id="g3069"><path
             d="m 0,0 c -0.846,0 -1.533,-0.688 -1.533,-1.533 0,-0.846 0.687,-1.533 1.533,-1.533 0.846,0 1.533,0.687 1.533,1.533 C 1.533,-0.688 0.846,0 0,0"
             id="path3071"
             style="fill:#000000;fill-opacity:1;fill-rule:nonzero;stroke:none" /></g><g
           transform="translate(427.3457,185.1621)"
           id="g3073"><path
             d="m 0,0 c -0.552,0 -1,-0.448 -1,-1 l 0,-8.227 2,0 L 1,-1 C 1,-0.448 0.552,0 0,0"
             id="path3075"
             style="fill:#000000;fill-opacity:1;fill-rule:nonzero;stroke:none" /></g><g
           transform="translate(369.7529,191.6211)"
           id="g3077"><path
             d="m 0,0 0,-7.861 c 4.509,3.392 10.11,5.406 16.175,5.406 9.854,0 18.486,-5.317 23.189,-13.231 l 10.055,0 0,4.915 c 0,1.015 0.825,1.84 1.84,1.84 1.014,0 1.84,-0.825 1.84,-1.84 l 0,-4.915 2.494,0 0,8.227 c 0,1.103 0.897,2 2,2 1.102,0 2,-0.897 2,-2 l 0,-8.227 3.15,0 L 62.743,0 0,0 z"
             id="path3079"
             style="fill:#000000;fill-opacity:1;fill-rule:nonzero;stroke:none" /></g><g
           transform="translate(421.0117,181.6904)"
           id="g3081"><path
             d="m 0,0 c -0.463,0 -0.84,-0.377 -0.84,-0.84 l 0,-4.915 1.68,0 0,4.915 C 0.84,-0.377 0.463,0 0,0"
             id="path3083"
             style="fill:#000000;fill-opacity:1;fill-rule:nonzero;stroke:none" /></g><path
           d="m 190.97,147.537 -7.384,0 0,-26.396 7.384,0 0,26.396 z"
           id="path3085"
           style="fill:#000000;fill-opacity:1;fill-rule:nonzero;stroke:none" /><path
           d="m 190.97,120.141 -7.384,0 0,-1.121 7.384,0 0,1.121 z"
           id="path3087"
           style="fill:#000000;fill-opacity:1;fill-rule:nonzero;stroke:none" /><g
           transform="translate(217.8447,157.3408)"
           id="g3089"><path
             d="m 0,0 -2.887,2.908 -13.051,0 0,-17.315 15.926,0 L 0,0 z"
             id="path3091"
             style="fill:#000000;fill-opacity:1;fill-rule:nonzero;stroke:none" /></g><path
           d="m 200.907,160.249 -1.135,0 0,-17.315 1.135,0 0,17.315 z"
           id="path3093"
           style="fill:#000000;fill-opacity:1;fill-rule:nonzero;stroke:none" /><g
           transform="translate(206.3447,120.668)"
           id="g3095"><path
             d="M 0,0 C 0,-0.276 -0.224,-0.5 -0.5,-0.5 -0.776,-0.5 -1,-0.276 -1,0 l 0,11.284 c 0,0.277 0.224,0.5 0.5,0.5 0.276,0 0.5,-0.223 0.5,-0.5 L 0,0 z m -3.75,0 c 0,-0.276 -0.224,-0.5 -0.5,-0.5 -0.276,0 -0.5,0.224 -0.5,0.5 l 0,11.284 c 0,0.277 0.224,0.5 0.5,0.5 0.276,0 0.5,-0.223 0.5,-0.5 L -3.75,0 z m 15.237,21.266 -19.059,0 0,18.315 -15.187,0 0,-11.712 8.384,0 0,-30.517 -8.384,0 0,-4.829 31.372,0 0,25.243 2.868,-2.89 0.006,6.39 z"
             id="path3097"
             style="fill:#000000;fill-opacity:1;fill-rule:nonzero;stroke:none" /></g><g
           transform="translate(191.0781,177.1211)"
           id="g3099"><path
             d="m 0,0 8.194,0 c 0.552,0 1,0.448 1,1 0,0.552 -0.448,1 -1,1 L 0,2 C -0.552,2 -1,1.552 -1,1 -1,0.448 -0.552,0 0,0"
             id="path3101"
             style="fill:#000000;fill-opacity:1;fill-rule:nonzero;stroke:none" /></g><g
           transform="translate(207.4668,169.6152)"
           id="g3103"><path
             d="m 0,0 -16.389,0 c -0.551,0 -1,-0.448 -1,-1 0,-0.552 0.449,-1 1,-1 L 0,-2 c 0.552,0 1,0.448 1,1 0,0.552 -0.448,1 -1,1"
             id="path3105"
             style="fill:#000000;fill-opacity:1;fill-rule:nonzero;stroke:none" /></g><g
           transform="translate(207.4668,166.6152)"
           id="g3107"><path
             d="m 0,0 -16.389,0 c -1.102,0 -2,0.897 -2,2 0,1.103 0.898,2 2,2 L 0,4 C 1.103,4 2,3.103 2,2 2,0.897 1.103,0 0,0 m -16.389,13.506 8.195,0 c 1.102,0 2,-0.898 2,-2 0,-1.103 -0.898,-2 -2,-2 l -8.195,0 c -1.102,0 -2,0.897 -2,2 0,1.102 0.898,2 2,2 m 19.477,11.5 1.989,-1.988 c 0.195,-0.196 0.195,-0.512 0,-0.707 -0.098,-0.098 -0.225,-0.147 -0.353,-0.147 -0.128,0 -0.256,0.049 -0.354,0.147 l -2.696,2.695 -4.423,0 1.986,-1.985 c 0.196,-0.196 0.196,-0.512 0,-0.708 -0.097,-0.097 -0.225,-0.146 -0.353,-0.146 -0.128,0 -0.256,0.049 -0.354,0.146 l -2.693,2.693 -4.421,0 1.989,-1.989 c 0.196,-0.196 0.196,-0.512 0,-0.707 -0.097,-0.098 -0.225,-0.147 -0.353,-0.147 -0.128,0 -0.256,0.049 -0.354,0.147 l -2.697,2.696 -13.882,0 0,-27.304 31.372,0 0,27.304 -4.403,0 z"
             id="path3109"
             style="fill:#000000;fill-opacity:1;fill-rule:nonzero;stroke:none" /></g><g
           transform="translate(264.084,186.708)"
           id="g3111"><path
             d="M 0,0 C 0,0.276 0.224,0.5 0.5,0.5 0.776,0.5 1,0.276 1,0 l 0,-6.284 c 0,-0.277 -0.224,-0.5 -0.5,-0.5 -0.276,0 -0.5,0.223 -0.5,0.5 L 0,0 z m 3.75,0 c 0,0.276 0.224,0.5 0.5,0.5 0.276,0 0.5,-0.224 0.5,-0.5 l 0,-6.284 c 0,-0.277 -0.224,-0.5 -0.5,-0.5 -0.276,0 -0.5,0.223 -0.5,0.5 L 3.75,0 z m 2.816,-18.698 2.132,2.132 0,21.479 -11.297,0 c 0,-3.986 -1.559,-7.607 -4.085,-10.316 l 13.25,-13.295 z"
             id="path3113"
             style="fill:#000000;fill-opacity:1;fill-rule:nonzero;stroke:none" /></g><g
           transform="translate(269.9434,167.3027)"
           id="g3115"><path
             d="M 0,0 -13.248,13.293 C -15.962,10.74 -19.603,9.164 -23.613,9.164 l 0,-16.218 -2.194,-2.21 2.614,-2.612 c 0.195,-0.195 0.195,-0.512 0,-0.707 -0.098,-0.098 -0.226,-0.146 -0.354,-0.146 -0.128,0 -0.256,0.048 -0.353,0.146 l -2.611,2.61 -2.203,-2.219 2.602,-2.602 c 0.195,-0.195 0.195,-0.512 0,-0.707 -0.098,-0.098 -0.226,-0.146 -0.354,-0.146 -0.128,0 -0.256,0.048 -0.353,0.146 l -2.6,2.599 -2.203,-2.219 2.591,-2.591 c 0.195,-0.195 0.195,-0.512 0,-0.707 -0.098,-0.098 -0.226,-0.146 -0.354,-0.146 -0.128,0 -0.256,0.048 -0.353,0.146 l -2.588,2.588 -6.974,-7.024 -11.8,11.886 -0.018,-21.797 9.143,-9.21 L 0,0 z"
             id="path3117"
             style="fill:#000000;fill-opacity:1;fill-rule:nonzero;stroke:none" /></g><g
           transform="translate(260.4854,191.6211)"
           id="g3119"><path
             d="m 0,0 -0.975,0 c 0,-7.268 -5.913,-13.181 -13.18,-13.181 l 0,-0.973 C -6.35,-14.154 0,-7.805 0,0"
             id="path3121"
             style="fill:#000000;fill-opacity:1;fill-rule:nonzero;stroke:none" /></g><g
           transform="translate(252.7373,190.4932)"
           id="g3123"><path
             d="m 0,0 c 0.705,0 1.293,0.479 1.472,1.128 l -2.944,0 C -1.293,0.479 -0.704,0 0,0"
             id="path3125"
             style="fill:#000000;fill-opacity:1;fill-rule:nonzero;stroke:none" /></g><g
           transform="translate(258.5107,191.6211)"
           id="g3127"><path
             d="m 0,0 -3.281,0 c -0.196,-1.203 -1.235,-2.128 -2.492,-2.128 -1.258,0 -2.297,0.925 -2.493,2.128 l -3.915,0 0,-12.181 C -5.464,-12.181 0,-6.717 0,0"
             id="path3129"
             style="fill:#000000;fill-opacity:1;fill-rule:nonzero;stroke:none" /></g><path
           d="m 273.782,113.191 3.92,0 0,78.43 -3.92,0 0,-78.43 z"
           id="path3131"
           style="fill:#000000;fill-opacity:1;fill-rule:nonzero;stroke:none" /><g
           transform="translate(268.6875,133.793)"
           id="g3133"><path
             d="m 0,0 c -0.098,-0.098 -0.226,-0.146 -0.354,-0.146 -0.127,0 -0.255,0.048 -0.353,0.146 l -7.981,7.979 c -0.195,0.195 -0.195,0.511 0,0.707 0.196,0.195 0.512,0.195 0.708,0 L 0,0.707 C 0.195,0.512 0.195,0.195 0,0 m 0,-5.837 c -0.098,-0.098 -0.226,-0.146 -0.354,-0.146 -0.127,0 -0.255,0.048 -0.353,0.146 l -7.981,7.98 c -0.195,0.195 -0.195,0.511 0,0.707 0.196,0.195 0.512,0.195 0.708,0 L 0,-5.13 c 0.195,-0.195 0.195,-0.512 0,-0.707 m 0,-5.837 c -0.098,-0.097 -0.226,-0.146 -0.354,-0.146 -0.127,0 -0.255,0.049 -0.353,0.146 l -7.981,7.98 c -0.195,0.195 -0.195,0.511 0,0.707 0.196,0.195 0.512,0.195 0.708,0 L 0,-10.967 c 0.195,-0.195 0.195,-0.512 0,-0.707 m -40.015,2.498 1.971,-1.984 15.687,15.801 0,-25.243 26.452,0 0,55.537 -44.11,-44.111 z"
             id="path3135"
             style="fill:#000000;fill-opacity:1;fill-rule:nonzero;stroke:none" /></g><g
           transform="translate(156.832,155.0732)"
           id="g3137"><path
             d="M 0,0 -0.004,0"
             id="path3139"
             style="fill:none;stroke:#97b1dc;stroke-width:1;stroke-linecap:round;stroke-linejoin:miter;stroke-miterlimit:10;stroke-opacity:1;stroke-dasharray:none" /></g><path
           d="m 151.356,144.563 3.593,0 0,4.664 -3.593,0 0,-4.664 z"
           id="path3141"
           style="fill:#000000;fill-opacity:1;fill-rule:nonzero;stroke:none" /><path
           d="m 127.108,160.249 -3.968,0 0,-3.287 3.968,0 0,3.287 z"
           id="path3143"
           style="fill:#000000;fill-opacity:1;fill-rule:nonzero;stroke:none" /><g
           transform="translate(162.3447,144.5635)"
           id="g3145"><path
             d="m 0,0 1.156,0 0,4.664 -2.779,0 C -0.97,3.163 -0.426,1.605 0,0"
             id="path3147"
             style="fill:#000000;fill-opacity:1;fill-rule:nonzero;stroke:none" /></g><path
           d="m 138.283,160.249 -3.968,0 0,-3.287 3.968,0 0,3.287 z"
           id="path3149"
           style="fill:#000000;fill-opacity:1;fill-rule:nonzero;stroke:none" /><g
           transform="translate(134.0322,133.6182)"
           id="g3151"><path
             d="m 0,0 c 0.195,-0.195 0.195,-0.512 0,-0.707 -0.098,-0.098 -0.226,-0.147 -0.354,-0.147 -0.127,0 -0.255,0.049 -0.353,0.147 l -2.685,2.685 -2.684,-2.685 c -0.098,-0.098 -0.226,-0.147 -0.354,-0.147 -0.128,0 -0.256,0.049 -0.353,0.147 -0.196,0.195 -0.196,0.512 0,0.707 l 2.684,2.685 -2.684,2.684 c -0.196,0.195 -0.196,0.512 0,0.707 0.195,0.195 0.512,0.195 0.707,0 l 2.684,-2.684 2.685,2.684 C -0.512,6.271 -0.195,6.271 0,6.076 0.195,5.881 0.195,5.564 0,5.369 L -2.685,2.685 0,0 z m -3.391,9.18 c -1.735,0 -3.367,-0.676 -4.593,-1.904 -2.532,-2.532 -2.532,-6.652 0,-9.184 1.225,-1.227 2.857,-1.903 4.593,-1.903 1.736,0 3.367,0.675 4.592,1.902 1.225,1.224 1.9,2.855 1.9,4.593 0,1.737 -0.675,3.368 -1.9,4.592 -1.225,1.228 -2.856,1.904 -4.592,1.904"
             id="path3153"
             style="fill:#000000;fill-opacity:1;fill-rule:nonzero;stroke:none" /></g><path
           d="m 168.46,144.563 3.593,0 0,4.664 -3.593,0 0,-4.664 z"
           id="path3155"
           style="fill:#000000;fill-opacity:1;fill-rule:nonzero;stroke:none" /><g
           transform="translate(161.5625,128.8779)"
           id="g3157"><path
             d="m 0,0 -15.339,0 0,-2.358 14.679,0 C -0.411,-1.585 -0.191,-0.798 0,0"
             id="path3159"
             style="fill:#000000;fill-opacity:1;fill-rule:nonzero;stroke:none" /></g><path
           d="m 172.053,122.911 -3.593,0 0,-5.994 3.593,0 0,5.994 z"
           id="path3161"
           style="fill:#000000;fill-opacity:1;fill-rule:nonzero;stroke:none" /><g
           transform="translate(176.5947,144.5635)"
           id="g3163"><path
             d="m 0,0 0,10.01 -18.818,0 c 0.937,-1.377 1.77,-2.829 2.492,-4.346 l 4.232,0 0,-5.664 2.959,0 0,5.664 5.593,0 L -3.542,0 0,0 z"
             id="path3165"
             style="fill:#000000;fill-opacity:1;fill-rule:nonzero;stroke:none" /></g><path
           d="m 173.053,115.917 -5.593,0 0,7.994 5.593,0 0,-7.994 z m -11.434,9.603 c -1.627,-4.685 -4.298,-8.881 -7.722,-12.329 l 22.698,0 0,12.329 -14.976,0 z"
           id="path3167"
           style="fill:#000000;fill-opacity:1;fill-rule:nonzero;stroke:none" /><g
           transform="translate(176.5947,128.8779)"
           id="g3169"><path
             d="m 0,0 -14,0 c -0.184,-0.798 -0.396,-1.584 -0.637,-2.358 L 0,-2.358 0,0 z"
             id="path3171"
             style="fill:#000000;fill-opacity:1;fill-rule:nonzero;stroke:none" /></g><g
           transform="translate(157.0645,155.5732)"
           id="g3173"><path
             d="m 0,0 19.53,0 0,4.676 -23.734,0 C -2.661,3.253 -1.247,1.692 0,0"
             id="path3175"
             style="fill:#000000;fill-opacity:1;fill-rule:nonzero;stroke:none" /></g><g
           transform="translate(450.0674,189.665)"
           id="g3177"><path
             d="M 0,0 C 0,0.276 0.224,0.5 0.5,0.5 0.776,0.5 1,0.276 1,0 l 0,-7.146 c 0,-0.276 -0.224,-0.5 -0.5,-0.5 -0.276,0 -0.5,0.224 -0.5,0.5 L 0,0 z m 12.677,0 c 0,0.276 0.223,0.5 0.5,0.5 0.276,0 0.5,-0.224 0.5,-0.5 l 0,-7.146 c 0,-0.276 -0.224,-0.5 -0.5,-0.5 -0.277,0 -0.5,0.224 -0.5,0.5 l 0,7.146 z m 33.267,-9.208 0,11.164 -5.844,0 -6.22,-6.222 c -0.098,-0.097 -0.226,-0.146 -0.354,-0.146 -0.128,0 -0.255,0.049 -0.353,0.146 -0.195,0.196 -0.195,0.512 0,0.707 l 5.514,5.515 -4.423,0 -6.221,-6.222 c -0.098,-0.097 -0.226,-0.146 -0.354,-0.146 -0.127,0 -0.255,0.049 -0.353,0.146 -0.195,0.196 -0.195,0.512 0,0.707 l 5.514,5.515 -4.423,0 -6.221,-6.222 c -0.098,-0.097 -0.226,-0.146 -0.353,-0.146 -0.128,0 -0.256,0.049 -0.354,0.146 -0.195,0.196 -0.195,0.512 0,0.707 l 5.514,5.515 -38.399,0 0,-11.164 57.33,0 z"
             id="path3179"
             style="fill:#000000;fill-opacity:1;fill-rule:nonzero;stroke:none" /></g><path
           d="m 497.012,175.936 0.958,0 0,15.686 -0.958,0 0,-15.686 z"
           id="path3181"
           style="fill:#000000;fill-opacity:1;fill-rule:nonzero;stroke:none" /><g
           transform="translate(450.585,172.6982)"
           id="g3183"><path
             d="m 0,0 c -0.846,0 -1.533,-0.688 -1.533,-1.533 0,-0.846 0.687,-1.533 1.533,-1.533 0.846,0 1.533,0.687 1.533,1.533 C 1.533,-0.688 0.846,0 0,0"
             id="path3185"
             style="fill:#000000;fill-opacity:1;fill-rule:nonzero;stroke:none" /></g><g
           transform="translate(463.2441,168.6318)"
           id="g3187"><path
             d="M 0,0 C -1.396,0 -2.533,1.137 -2.533,2.533 -2.533,3.93 -1.396,5.066 0,5.066 1.396,5.066 2.533,3.93 2.533,2.533 2.533,1.137 1.396,0 0,0 m -12.659,0 c -1.397,0 -2.533,1.137 -2.533,2.533 0,1.397 1.136,2.533 2.533,2.533 1.396,0 2.533,-1.136 2.533,-2.533 C -10.126,1.137 -11.263,0 -12.659,0 m 45.427,10.825 -57.331,0 0,-15.139 31.372,0 0,11.618 25.959,0 0,3.521 z"
             id="path3189"
             style="fill:#000000;fill-opacity:1;fill-rule:nonzero;stroke:none" /></g><g
           transform="translate(463.2441,172.6982)"
           id="g3191"><path
             d="m 0,0 c -0.846,0 -1.533,-0.688 -1.533,-1.533 0,-0.846 0.687,-1.533 1.533,-1.533 0.846,0 1.533,0.687 1.533,1.533 C 1.533,-0.688 0.846,0 0,0"
             id="path3193"
             style="fill:#000000;fill-opacity:1;fill-rule:nonzero;stroke:none" /></g><g
           transform="translate(501.5527,191.6211)"
           id="g3195"><path
             d="m 0,0 -2.583,0 0,-15.686 18.142,0 0,0.127 C 15.559,-6.966 8.593,0 0,0"
             id="path3197"
             style="fill:#000000;fill-opacity:1;fill-rule:nonzero;stroke:none" /></g><g
           transform="translate(316.0088,157.2793)"
           id="g3199"><path
             d="m 0,0 0,2.97 -31.371,0 0,-28.375 13.726,0 c -0.252,1.32 -0.4,2.677 -0.4,4.071 0,10.492 7.738,19.604 18.045,21.334"
             id="path3201"
             style="fill:#000000;fill-opacity:1;fill-rule:nonzero;stroke:none" /></g><g
           transform="translate(298.5703,130.874)"
           id="g3203"><path
             d="m 0,0 -13.933,0 0,-1.167 14.252,0 C 0.202,-0.782 0.095,-0.394 0,0"
             id="path3205"
             style="fill:#000000;fill-opacity:1;fill-rule:nonzero;stroke:none" /></g><g
           transform="translate(309.1592,188.4404)"
           id="g3207"><path
             d="m 0,0 -7.98,-7.979 c -0.098,-0.097 -0.226,-0.146 -0.354,-0.146 -0.128,0 -0.256,0.049 -0.354,0.146 -0.195,0.196 -0.195,0.512 0,0.708 l 7.981,7.978 C -0.512,0.902 -0.195,0.902 0,0.707 0.195,0.512 0.195,0.195 0,0 m 0,-5.836 -7.98,-7.979 c -0.098,-0.098 -0.226,-0.147 -0.354,-0.147 -0.128,0 -0.256,0.049 -0.354,0.147 -0.195,0.195 -0.195,0.511 0,0.707 l 7.981,7.979 c 0.195,0.195 0.512,0.195 0.707,0 0.195,-0.195 0.195,-0.512 0,-0.707 m 0,-5.837 -7.98,-7.979 c -0.098,-0.098 -0.226,-0.147 -0.354,-0.147 -0.128,0 -0.256,0.049 -0.354,0.147 -0.195,0.195 -0.195,0.511 0,0.707 l 7.981,7.979 c 0.195,0.195 0.512,0.195 0.707,0 0.195,-0.195 0.195,-0.512 0,-0.707 m -24.521,14.854 0,-27.304 31.371,0 0,11.618 0,15.686 -31.371,0 z"
             id="path3209"
             style="fill:#000000;fill-opacity:1;fill-rule:nonzero;stroke:none" /></g><g
           transform="translate(363.0674,147.499)"
           id="g3211"><path
             d="m 0,0 -7.669,-7.669 c 0.584,-0.746 0.946,-1.674 0.946,-2.693 0,-2.428 -1.974,-4.403 -4.402,-4.403 -1.02,0 -1.947,0.363 -2.693,0.946 l -17.555,-17.554 0,-2.935 11.525,0 5.389,5.389 c -0.657,0.77 -1.068,1.754 -1.068,2.842 0,2.428 1.974,4.402 4.402,4.402 1.088,0 2.072,-0.412 2.842,-1.068 L 0,-14.459 0,0 z"
             id="path3213"
             style="fill:#000000;fill-opacity:1;fill-rule:nonzero;stroke:none" /></g><g
           transform="translate(351.9424,124.8242)"
           id="g3215"><path
             d="m 0,0 c -1.876,0 -3.402,-1.526 -3.402,-3.402 0,-1.876 1.526,-3.403 3.402,-3.403 1.876,0 3.402,1.527 3.402,3.403 C 3.402,-1.526 1.876,0 0,0"
             id="path3217"
             style="fill:#000000;fill-opacity:1;fill-rule:nonzero;stroke:none" /></g><g
           transform="translate(304.8154,124.8242)"
           id="g3219"><path
             d="m 0,0 c -1.876,0 -3.402,-1.526 -3.402,-3.402 0,-1.876 1.526,-3.403 3.402,-3.403 1.876,0 3.402,1.527 3.402,3.403 C 3.402,-1.526 1.876,0 0,0"
             id="path3221"
             style="fill:#000000;fill-opacity:1;fill-rule:nonzero;stroke:none" /></g><g
           transform="translate(304.8154,133.7344)"
           id="g3223"><path
             d="M 0,0 C 1.876,0 3.402,1.526 3.402,3.402 3.402,5.278 1.876,6.805 0,6.805 -1.876,6.805 -3.402,5.278 -3.402,3.402 -3.402,1.526 -1.876,0 0,0"
             id="path3225"
             style="fill:#000000;fill-opacity:1;fill-rule:nonzero;stroke:none" /></g><g
           transform="translate(316.0088,115.6328)"
           id="g3227"><path
             d="m 0,0 0,13.074 -15.724,0 c 0.501,-1.332 1.14,-2.596 1.893,-3.783 0.737,0.558 1.644,0.9 2.638,0.9 2.427,0 4.402,-1.974 4.402,-4.402 0,-1.019 -0.362,-1.947 -0.946,-2.694 C -5.436,1.573 -2.814,0.504 0,0"
             id="path3229"
             style="fill:#000000;fill-opacity:1;fill-rule:nonzero;stroke:none" /></g><g
           transform="translate(331.6943,117.54)"
           id="g3231"><path
             d="m 0,0 6.388,6.388 0.019,55.996 -21.093,0 0,-3.988 14.686,0 0,-15.687 -14.285,0 -0.401,0 0,-15.686 L 0,27.023 0,0 z"
             id="path3233"
             style="fill:#000000;fill-opacity:1;fill-rule:nonzero;stroke:none" /></g><path
           d="m 317.009,180.924 1.419,0 0,10.697 -1.419,0 0,-10.697 z"
           id="path3235"
           style="fill:#000000;fill-opacity:1;fill-rule:nonzero;stroke:none" /><g
           transform="translate(355.4707,124.0293)"
           id="g3237"><path
             d="m 0,0 c 0.542,-0.732 0.874,-1.629 0.874,-2.607 0,-2.428 -1.975,-4.403 -4.402,-4.403 -0.979,0 -1.875,0.332 -2.608,0.875 l -4.703,-4.703 18.436,0 0,18.435 L 0,0 z"
             id="path3239"
             style="fill:#000000;fill-opacity:1;fill-rule:nonzero;stroke:none" /></g><g
           transform="translate(307.5518,118)"
           id="g3241"><path
             d="m 0,0 c -0.754,-0.604 -1.697,-0.98 -2.736,-0.98 -2.428,0 -4.403,1.974 -4.403,4.402 0,1.066 0.397,2.032 1.03,2.795 -0.905,1.394 -1.65,2.899 -2.217,4.49 l -14.588,0 0,-15.516 31.371,0 0,1.422 C 5.369,-2.862 2.501,-1.686 0,0"
             id="path3243"
             style="fill:#000000;fill-opacity:1;fill-rule:nonzero;stroke:none" /></g><g
           transform="translate(304.8154,141.5391)"
           id="g3245"><path
             d="M 0,0 C 2.428,0 4.402,-1.975 4.402,-4.402 4.402,-6.83 2.428,-8.805 0,-8.805 c -2.428,0 -4.402,1.975 -4.402,4.403 C -4.402,-1.975 -2.428,0 0,0 m 11.193,-11.832 0,14.856 0,11.698 C 1.447,13.001 -5.852,4.357 -5.852,-5.594 c 0,-2.175 0.344,-4.269 0.971,-6.238 l 16.074,0 z"
             id="path3247"
             style="fill:#000000;fill-opacity:1;fill-rule:nonzero;stroke:none" /></g><g
           transform="translate(351.9424,133.7344)"
           id="g3249"><path
             d="M 0,0 C 1.876,0 3.402,1.526 3.402,3.402 3.402,5.278 1.876,6.805 0,6.805 -1.876,6.805 -3.402,5.278 -3.402,3.402 -3.402,1.526 -1.876,0 0,0"
             id="path3251"
             style="fill:#000000;fill-opacity:1;fill-rule:nonzero;stroke:none" /></g><g
           transform="translate(358.9678,162.2051)"
           id="g3253"><path
             d="m 0,0 c 0,5.236 1.506,10.126 4.1,14.268 l 0,15.148 -15.028,0 0,-41.914 14.011,0 C 1.118,-8.76 0,-4.509 0,0"
             id="path3255"
             style="fill:#000000;fill-opacity:1;fill-rule:nonzero;stroke:none" /></g><g
           transform="translate(359.9678,162.2051)"
           id="g3257"><path
             d="m 0,0 c 0,-4.443 1.124,-8.629 3.1,-12.289 l 0,24.578 C 1.124,8.629 0,4.443 0,0"
             id="path3259"
             style="fill:#000000;fill-opacity:1;fill-rule:nonzero;stroke:none" /></g><g
           transform="translate(362.6055,148.707)"
           id="g3261"><path
             d="m 0,0 -14.565,0 -1,0 0,1 0,12.567 -3.06,0 c -0.276,0 -0.5,0.224 -0.5,0.5 0,0.277 0.224,0.5 0.5,0.5 l 3.06,0 0,4.543 -3.06,0 c -0.276,0 -0.5,0.224 -0.5,0.5 0,0.277 0.224,0.5 0.5,0.5 l 3.06,0 0,4.542 -3.06,0 c -0.276,0 -0.5,0.224 -0.5,0.5 0,0.277 0.224,0.5 0.5,0.5 l 3.06,0 0,13.825 -3.06,0 c -0.276,0 -0.5,0.223 -0.5,0.5 0,0.276 0.224,0.5 0.5,0.5 l 3.06,0 0,2.437 -27.613,0 0,-10.697 19.674,0 -0.018,-55.996 9.453,9.454 c -0.614,0.757 -0.996,1.707 -0.996,2.755 0,2.427 1.974,4.402 4.402,4.402 1.048,0 1.998,-0.383 2.755,-0.996 l 8.002,8.002 C 0.062,-0.108 0.031,-0.054 0,0"
             id="path3263"
             style="fill:#000000;fill-opacity:1;fill-rule:nonzero;stroke:none" /></g><g
           transform="translate(399.0029,139.8125)"
           id="g3265"><path
             d="m 0,0 c 0.733,0.43 1.436,0.904 2.121,1.401 l 0,19.036 -2.164,0 C -0.957,14.055 -6.445,9.128 -13.075,9.128 c -6.63,0 -12.118,4.927 -13.032,11.309 l -3.143,0 0,-18.32 c 3.951,-3.154 8.839,-5.186 14.175,-5.596 l 0,3.386 c 0,1.103 0.897,2 2,2 1.102,0 2,-0.897 2,-2 l 0,-3.38 c 2.475,0.191 4.85,0.737 7.085,1.576 l 0,1.804 c 0,1.103 0.897,2 2,2 C -0.92,1.907 -0.049,1.059 0,0"
             id="path3267"
             style="fill:#000000;fill-opacity:1;fill-rule:nonzero;stroke:none" /></g><g
           transform="translate(385.9277,157.6064)"
           id="g3269"><path
             d="M 0,0 C 1.396,0 2.533,-1.137 2.533,-2.533 2.533,-3.93 1.396,-5.066 0,-5.066 c -1.396,0 -2.533,1.136 -2.533,2.533 C -2.533,-1.137 -1.396,0 0,0 m 0,-7.666 c 6.079,0 11.116,4.479 12.021,10.309 l -24.042,0 C -11.116,-3.187 -6.079,-7.666 0,-7.666"
             id="path3271"
             style="fill:#000000;fill-opacity:1;fill-rule:nonzero;stroke:none" /></g><g
           transform="translate(385.9277,153.54)"
           id="g3273"><path
             d="M 0,0 C 0.846,0 1.533,0.688 1.533,1.533 1.533,2.379 0.846,3.066 0,3.066 -0.846,3.066 -1.533,2.379 -1.533,1.533 -1.533,0.688 -0.846,0 0,0"
             id="path3275"
             style="fill:#000000;fill-opacity:1;fill-rule:nonzero;stroke:none" /></g><g
           transform="translate(396.0127,139.7197)"
           id="g3277"><path
             d="m 0,0 0,-6.12 c 0,-0.552 0.448,-1 1,-1 0.552,0 1,0.448 1,1 L 2,0 C 2,0.552 1.552,1 1,1 0.448,1 0,0.552 0,0"
             id="path3279"
             style="fill:#000000;fill-opacity:1;fill-rule:nonzero;stroke:none" /></g><g
           transform="translate(384.9277,139.7197)"
           id="g3281"><path
             d="m 0,0 0,-6.12 c 0,-0.552 0.448,-1 1,-1 0.552,0 1,0.448 1,1 L 2,0 C 2,0.552 1.552,1 1,1 0.448,1 0,0.552 0,0"
             id="path3283"
             style="fill:#000000;fill-opacity:1;fill-rule:nonzero;stroke:none" /></g><g
           transform="translate(377.0771,136.748)"
           id="g3285"><path
             d="m 0,0 c -0.506,0.177 -1.008,0.363 -1.5,0.568 l 0,-24.125 1.5,0 L 0,0 z"
             id="path3287"
             style="fill:#000000;fill-opacity:1;fill-rule:nonzero;stroke:none" /></g><g
           transform="translate(422.8496,116.3242)"
           id="g3289"><path
             d="m 0,0 c -0.098,-0.098 -0.226,-0.146 -0.354,-0.146 -0.127,0 -0.255,0.048 -0.353,0.146 l -7.98,7.98 c -0.195,0.196 -0.195,0.512 0,0.708 0.196,0.195 0.512,0.195 0.708,0 L 0,0.707 C 0.195,0.512 0.195,0.195 0,0 m -5.837,0 c -0.098,-0.098 -0.226,-0.146 -0.353,-0.146 -0.128,0 -0.256,0.048 -0.354,0.146 l -7.979,7.98 c -0.196,0.196 -0.196,0.512 0,0.708 0.195,0.195 0.511,0.195 0.707,0 l 7.979,-7.981 c 0.195,-0.195 0.195,-0.512 0,-0.707 m -5.837,0 c -0.097,-0.098 -0.225,-0.146 -0.353,-0.146 -0.128,0 -0.256,0.048 -0.354,0.146 l -7.978,7.98 c -0.196,0.196 -0.196,0.512 0,0.708 0.195,0.195 0.511,0.195 0.707,0 l 7.978,-7.981 c 0.195,-0.195 0.195,-0.512 0,-0.707 m -10.052,12.554 0,11.108 c -0.684,-0.469 -1.383,-0.918 -2.111,-1.324 l 0,-5.063 c 0,-1.102 -0.897,-2 -2,-2 -1.102,0 -2,0.898 -2,2 l 0,3.248 c -2.242,-0.806 -4.615,-1.329 -7.085,-1.511 l 0,-1.737 c 0,-1.102 -0.897,-2 -2,-2 -1.102,0 -2,0.898 -2,2 l 0,1.732 c -2.019,0.148 -3.978,0.515 -5.85,1.087 l 0,-23.227 54.418,0 0,15.687 -31.372,0 z"
             id="path3291"
             style="fill:#000000;fill-opacity:1;fill-rule:nonzero;stroke:none" /></g><g
           transform="translate(369.7529,140.6582)"
           id="g3293"><path
             d="m 0,0 0,-27.467 4.824,0 0,24.57 C 3.111,-2.099 1.496,-1.125 0,0"
             id="path3295"
             style="fill:#000000;fill-opacity:1;fill-rule:nonzero;stroke:none" /></g><g
           transform="translate(137.6406,129.3027)"
           id="g3297"><path
             d="m 0,0 c -1.867,-1.869 -4.353,-2.898 -6.999,-2.898 -2.647,0 -5.133,1.029 -7.001,2.898 -3.857,3.859 -3.857,10.14 0,13.998 1.869,1.87 4.355,2.9 7.001,2.9 2.645,0 5.131,-1.03 6.999,-2.9 C 3.859,10.139 3.859,3.859 0,0 m 0.543,16.593 10.99,10.989 c 0.196,0.195 0.512,0.195 0.707,0 0.196,-0.195 0.196,-0.512 0,-0.707 L 1.25,15.886 C 1.152,15.788 1.024,15.739 0.896,15.739 c -0.127,0 -0.255,0.049 -0.353,0.147 -0.195,0.195 -0.195,0.511 0,0.707 m 13.206,9.48 c 0.195,-0.195 0.195,-0.511 0,-0.707 L 2.759,14.377 C 2.661,14.279 2.533,14.23 2.405,14.23 c -0.128,0 -0.256,0.049 -0.353,0.147 -0.196,0.195 -0.196,0.512 0,0.707 l 10.99,10.989 c 0.195,0.196 0.512,0.196 0.707,0 m -6.166,-26.498 0,13.936 0,1.75 5.133,0 0,5.664 5.593,0 0,-5.664 5.352,0 c -1.689,6.183 -5.205,11.617 -9.932,15.685 l -3.83,0 -2.316,0 -5.94,0 0,-4.287 -5.968,0 0,4.287 -5.207,0 0,-4.287 -5.968,0 0,4.287 -8.289,0 0,-31.499 c 0,-2.123 0.428,-4.144 1.198,-5.988 l 5.998,5.998 c 0.196,0.195 0.512,0.195 0.707,0 0.196,-0.195 0.196,-0.512 0,-0.707 l -6.251,-6.251 c 0.177,-0.353 0.367,-0.696 0.57,-1.034 l 6.483,6.483 c 0.195,0.196 0.512,0.196 0.707,0 0.195,-0.195 0.195,-0.511 0,-0.707 l -6.644,-6.642 c 2.809,-4.052 7.486,-6.71 12.79,-6.71 l 23.057,0 c 3.587,3.389 6.395,7.594 8.097,12.328 l -15.34,0 0,3.358 z"
             id="path3299"
             style="fill:#000000;fill-opacity:1;fill-rule:nonzero;stroke:none" /></g><g
           transform="translate(135.9404,131.002)"
           id="g3301"><path
             d="m 0,0 c -1.414,-1.415 -3.296,-2.194 -5.299,-2.194 -2.004,0 -3.887,0.779 -5.301,2.195 -2.921,2.922 -2.921,7.677 0,10.599 1.415,1.416 3.298,2.196 5.301,2.196 2.003,0 3.885,-0.78 5.299,-2.196 C 1.414,9.187 2.192,7.305 2.192,5.3 2.192,3.296 1.414,1.413 0,0 m -5.299,14.199 c -2.378,0 -4.613,-0.926 -6.294,-2.607 -3.467,-3.469 -3.467,-9.114 0,-12.584 1.679,-1.681 3.915,-2.606 6.294,-2.606 2.379,0 4.614,0.925 6.292,2.606 3.469,3.47 3.469,9.114 0,12.584 -1.68,1.681 -3.914,2.607 -6.292,2.607"
             id="path3303"
             style="fill:#000000;fill-opacity:1;fill-rule:nonzero;stroke:none" /></g></g></g></g></svg>