<?xml version="1.0" encoding="UTF-8" standalone="no"?>
<!-- Created with Inkscape (http://www.inkscape.org/) -->

<svg
   xmlns:dc="http://purl.org/dc/elements/1.1/"
   xmlns:cc="http://creativecommons.org/ns#"
   xmlns:rdf="http://www.w3.org/1999/02/22-rdf-syntax-ns#"
   xmlns:svg="http://www.w3.org/2000/svg"
   xmlns="http://www.w3.org/2000/svg"
   version="1.1"
   width="788.70374"
   height="381.01624"
   id="svg5027"
   xml:space="preserve"><metadata
     id="metadata5033"><rdf:RDF><cc:Work
         rdf:about=""><dc:format>image/svg+xml</dc:format><dc:type
           rdf:resource="http://purl.org/dc/dcmitype/StillImage" /><dc:title></dc:title></cc:Work></rdf:RDF></metadata><defs
     id="defs5031"><clipPath
       id="clipPath5041"><path
         d="m 0,304.813 630.963,0 L 630.963,0 0,0 0,304.813 z"
         id="path5043" /></clipPath></defs><g
     transform="matrix(1.25,0,0,-1.25,0,381.01625)"
     id="g5035"><g
       id="g5037"><g
         clip-path="url(#clipPath5041)"
         id="g5039"><g
           transform="translate(177.3516,153.4014)"
           id="g5045"><path
             d="m 0,0 c 0.715,3.048 1.572,5.954 2.573,8.719 1,2.762 2.119,5.31 3.359,7.647 1.237,2.333 2.572,4.31 4.002,5.932 0.952,1.142 1.88,1.237 2.787,0.285 0.905,-0.953 1.666,-2.479 2.287,-4.574 0.619,-2.097 1.023,-4.598 1.215,-7.504 0.19,-2.907 0.072,-5.742 -0.357,-8.504 -0.429,-2.766 -1.24,-5.267 -2.43,-7.504 -1.193,-2.24 -2.883,-3.789 -5.074,-4.646 -0.478,-0.192 -0.907,-0.334 -1.287,-0.429 -0.382,-0.096 -0.882,-0.096 -1.501,0 -0.62,0.095 -1.5,0.262 -2.644,0.501 -1.143,0.236 -2.668,0.594 -4.574,1.072 C -1.264,-6.053 -0.715,-3.052 0,0 m 19.582,-32.804 c -2.144,-1.669 -4.456,-3.026 -6.933,-4.074 -3.336,-1.525 -6.074,-1.597 -8.218,-0.214 -2.144,1.38 -3.788,3.453 -4.931,6.218 -1.144,2.763 -1.883,5.789 -2.216,9.076 -0.335,3.287 -0.263,6.121 0.215,8.504 2.19,-1.143 4.191,-1.764 6.003,-1.857 3.334,-0.287 6.122,0.236 8.362,1.572 2.238,1.333 4.049,3.191 5.431,5.574 1.381,2.381 2.334,5.097 2.859,8.148 0.523,3.048 0.715,6.096 0.572,9.148 -0.143,3.048 -0.597,5.906 -1.358,8.576 -0.764,2.666 -1.74,4.86 -2.93,6.574 -1.193,1.716 -2.598,2.739 -4.217,3.074 C 10.6,27.848 8.885,27.204 7.075,25.586 5.074,23.774 3.381,21.677 2.001,19.296 0.619,16.913 -0.571,14.34 -1.572,11.577 -2.573,8.813 -3.384,5.954 -4.002,3.001 -4.623,0.047 -5.074,-2.908 -5.36,-5.86 -6.124,-5.1 -6.957,-4.052 -7.861,-2.716 -8.768,-1.383 -9.626,0 -10.434,1.43 c -0.809,1.428 -1.548,2.786 -2.215,4.072 -0.666,1.287 -1.096,2.264 -1.288,2.931 l 0,0.143 -3.144,-3.573 c -0.19,-0.669 0.168,-1.787 1.072,-3.359 0.907,-1.573 2.001,-3.217 3.288,-4.932 1.286,-1.715 2.595,-3.312 3.93,-4.788 1.334,-1.479 2.287,-2.454 2.859,-2.931 -0.286,-3.622 -0.357,-7.481 -0.214,-11.577 0.143,-4.099 0.857,-7.743 2.144,-10.935 1.286,-3.194 3.334,-5.575 6.146,-7.146 2.81,-1.573 6.741,-1.691 11.793,-0.358 2.762,0.764 5.216,2.097 7.36,4.002 2.144,1.906 4.407,3.621 6.79,5.146 l -2.001,3.859 c -2.193,-1.525 -4.359,-3.122 -6.504,-4.788"
             id="path5047"
             style="fill:#000000;fill-opacity:1;fill-rule:nonzero;stroke:none" /></g><g
           transform="translate(285.6953,102.8018)"
           id="g5049"><path
             d="m 0,0 c -1.858,0.096 -3.384,0.643 -4.574,1.644 -1.193,1.001 -2.194,2.502 -3.001,4.502 -0.811,2.001 -1.598,4.575 -2.359,7.719 -1.715,7.527 -2.787,15.151 -3.216,22.869 -0.429,7.719 -0.978,15.388 -1.644,23.013 -0.096,0.665 -0.214,1.977 -0.357,3.931 -0.143,1.952 -0.382,4.073 -0.715,6.36 -0.335,2.287 -0.786,4.503 -1.358,6.647 -0.572,2.144 -1.264,3.716 -2.072,4.717 -0.811,1 -1.811,1.215 -3.002,0.643 -1.193,-0.571 -2.551,-2.383 -4.074,-5.431 -1.621,-3.144 -3.05,-6.696 -4.288,-10.649 -1.239,-3.955 -2.572,-7.886 -4.002,-11.792 -1.429,-3.908 -3.002,-7.601 -4.717,-11.077 -1.715,-3.481 -3.766,-6.362 -6.146,-8.649 -1.144,0.859 -2.05,2.334 -2.716,4.432 -0.668,2.095 -1.286,4.453 -1.858,7.075 -0.572,2.62 -1.168,5.336 -1.787,8.148 -0.62,2.808 -1.335,5.359 -2.144,7.646 -0.81,2.287 -1.835,4.168 -3.073,5.647 -1.24,1.475 -2.765,2.119 -4.574,1.929 -0.668,-0.096 -1.239,-0.477 -1.715,-1.144 -1.336,-2.858 -2.193,-5.742 -2.573,-8.647 -0.382,-2.908 -0.668,-5.886 -0.857,-8.933 -1.336,5.145 -3.431,9.409 -6.289,12.792 -2.86,3.381 -5.908,6.264 -9.148,8.648 l -2.716,-3.288 c 5.527,-4.098 9.456,-8.719 11.792,-13.864 2.333,-5.146 3.763,-10.435 4.288,-15.867 0.523,-5.431 0.476,-10.816 -0.143,-16.151 -0.621,-5.338 -1.072,-10.291 -1.358,-14.865 l 4.86,-1.43 c 0,0.478 0.071,1.597 0.215,3.36 0.142,1.763 0.308,3.787 0.5,6.074 0.189,2.287 0.38,4.739 0.571,7.361 0.19,2.619 0.38,5.097 0.572,7.433 0.19,2.334 0.358,4.382 0.5,6.146 0.144,1.762 0.215,2.931 0.215,3.501 0.19,2.002 0.286,4.026 0.286,6.075 0,2.049 0.046,4.121 0.143,6.218 0.094,2.095 0.285,4.121 0.572,6.074 0.285,1.954 0.808,3.882 1.572,5.789 1.333,-1.621 2.381,-3.787 3.144,-6.502 0.762,-2.716 1.43,-5.599 2.001,-8.648 0.572,-3.051 1.144,-6.003 1.716,-8.862 0.571,-2.86 1.333,-5.196 2.287,-7.004 0.286,-0.478 0.737,-1.026 1.357,-1.644 0.619,-0.621 1.287,-1.143 2.002,-1.572 0.714,-0.429 1.429,-0.692 2.144,-0.786 0.715,-0.097 1.357,0.094 1.929,0.571 3.431,3.239 6.05,6.813 7.862,10.72 1.809,3.907 3.406,7.885 4.788,11.936 1.38,4.049 2.738,8.098 4.074,12.15 1.333,4.049 3.238,7.836 5.717,11.362 0.952,-4.479 1.666,-8.982 2.144,-13.507 0.476,-4.527 0.858,-9.076 1.144,-13.65 0.285,-4.574 0.571,-9.149 0.857,-13.722 0.286,-4.574 0.762,-9.148 1.43,-13.722 0.665,-4.288 1.429,-8.218 2.286,-11.791 0.858,-3.574 2.12,-6.551 3.788,-8.934 1.666,-2.381 3.931,-3.979 6.79,-4.789 2.858,-0.809 6.622,-0.594 11.291,0.643 L 7.075,1.001 C 4.217,0.239 1.858,-0.094 0,0"
             id="path5051"
             style="fill:#000000;fill-opacity:1;fill-rule:nonzero;stroke:none" /></g><g
           transform="translate(310.2075,147.9697)"
           id="g5053"><path
             d="M 0,0 C 0,0.094 0.022,0.214 0.071,0.357 0.089,0.411 0.086,0.472 0.084,0.532 0.119,0.37 0.143,0.215 0.143,0.071 0.143,-0.167 0.094,-0.192 0,0 m 0,1.43 0,4.002 c 0,1.714 0.047,3.405 0.143,5.073 0.094,1.666 0.261,3.121 0.5,4.36 0.236,1.238 0.595,1.906 1.072,2.001 0.19,0 0.286,-0.049 0.286,-0.143 C 2.573,15.008 2.644,12.792 2.215,10.076 1.787,7.36 1.047,4.431 0,1.286 L 0,1.43 z m 0.858,-8.576 2.287,5.288 c 0.665,1.809 1.429,3.835 2.286,6.074 0.859,2.238 1.405,4.431 1.644,6.576 0.237,2.144 0.048,4.167 -0.572,6.074 -0.62,1.905 -2.025,3.381 -4.216,4.431 -0.764,0.19 -1.478,0.095 -2.144,-0.285 -1.43,-0.954 -2.502,-2.36 -3.216,-4.217 -0.715,-1.858 -1.168,-3.859 -1.358,-6.003 -0.192,-2.145 -0.214,-4.289 -0.071,-6.433 0.142,-2.143 0.308,-3.979 0.5,-5.503 0.094,-0.954 0.189,-1.908 0.286,-2.858 0.093,-0.954 0.237,-1.907 0.428,-2.859 -1.335,-2.668 -2.764,-5.242 -4.288,-7.719 -1.525,-2.479 -3.097,-4.694 -4.716,-6.647 -1.622,-1.954 -3.266,-3.573 -4.932,-4.859 -1.668,-1.286 -3.265,-2.025 -4.788,-2.216 -0.668,0.476 -1.358,0.905 -2.072,1.286 -0.715,0.38 -1.312,0.953 -1.788,1.716 -1.907,2.859 -2.669,6.432 -2.286,10.72 0.379,4.288 1.405,8.647 3.073,13.079 1.666,4.431 3.715,8.576 6.146,12.435 2.43,3.86 4.788,6.741 7.075,8.648 0.762,0.665 1.595,1.19 2.502,1.572 0.904,0.379 1.786,0.808 2.644,1.286 l -2.43,3.716 c -3.716,-2.192 -6.981,-4.812 -9.791,-7.86 -2.811,-3.052 -5.074,-6.625 -6.789,-10.721 -1.144,-2.764 -1.98,-4.741 -2.502,-5.931 -0.524,-1.193 -0.929,-2.241 -1.215,-3.145 -0.285,-0.906 -0.571,-1.979 -0.857,-3.217 -0.286,-1.238 -0.764,-3.287 -1.43,-6.145 -0.286,-1.24 -0.406,-2.788 -0.357,-4.646 0.047,-1.857 0.261,-3.765 0.643,-5.718 0.38,-1.954 0.976,-3.812 1.787,-5.574 0.808,-1.764 1.809,-3.216 3.001,-4.359 1.191,-1.144 2.596,-1.836 4.217,-2.073 1.619,-0.237 3.431,0.261 5.432,1.502 3.144,1.808 5.954,4.381 8.433,7.718 2.477,3.333 4.668,6.811 6.575,10.434 1.619,-7.719 3.953,-15.151 7.003,-22.298 3.049,-7.146 7.147,-13.958 12.293,-20.439 l 3.574,2.572 c -5.338,6.766 -9.673,14.103 -13.007,22.013 -3.337,7.907 -5.671,16.101 -7.004,24.585"
             id="path5055"
             style="fill:#000000;fill-opacity:1;fill-rule:nonzero;stroke:none" /></g><g
           transform="translate(370.3828,138.25)"
           id="g5057"><path
             d="m 0,0 c -0.571,0.379 -1.143,0.762 -1.715,1.144 -4.288,-6.29 -8.958,-11.579 -14.008,-15.866 -5.051,-4.289 -11.149,-7.147 -18.296,-8.577 -1.525,-0.286 -2.883,-0.096 -4.073,0.571 -1.193,0.667 -2.216,1.574 -3.073,2.716 -0.857,1.145 -1.55,2.406 -2.073,3.788 -0.525,1.38 -0.835,2.692 -0.929,3.931 -0.382,4.003 -0.286,8.052 0.286,12.15 0.571,4.096 1.524,8.098 2.859,12.006 1.333,3.907 2.977,7.67 4.931,11.292 1.952,3.62 4.167,6.955 6.647,10.005 l 2.572,-0.429 c 3.431,-5.716 5.24,-12.101 5.432,-19.153 l 4.288,0.43 c -0.096,1.619 -0.382,3.524 -0.858,5.718 -0.477,2.19 -1.072,4.406 -1.786,6.646 -0.715,2.237 -1.55,4.334 -2.502,6.289 -0.953,1.951 -1.954,3.502 -3.001,4.645 -1.05,1.144 -2.169,1.715 -3.359,1.715 -1.193,0 -2.359,-0.81 -3.502,-2.429 -2.859,-3.432 -5.361,-7.172 -7.504,-11.221 -2.145,-4.051 -3.931,-8.196 -5.36,-12.435 -1.43,-4.242 -2.43,-8.504 -3.002,-12.793 -0.572,-4.289 -0.715,-8.433 -0.429,-12.436 0.476,-5.527 1.905,-9.458 4.288,-11.792 2.381,-2.334 5.264,-3.502 8.648,-3.502 3.381,0 7.05,0.907 11.005,2.716 3.954,1.809 7.695,4.049 11.221,6.718 3.524,2.667 6.669,5.526 9.434,8.576 2.762,3.049 4.621,5.811 5.575,8.29 C 1.144,-0.811 0.571,-0.382 0,0"
             id="path5059"
             style="fill:#000000;fill-opacity:1;fill-rule:nonzero;stroke:none" /></g><g
           transform="translate(422.9814,134.5332)"
           id="g5061"><path
             d="m 0,0 c -1.239,-1.621 -2.787,-3.216 -4.645,-4.788 -1.858,-1.572 -3.931,-3.051 -6.218,-4.431 -2.286,-1.383 -4.552,-2.669 -6.789,-3.859 -2.241,-1.193 -4.36,-2.216 -6.361,-3.073 -2.001,-0.858 -3.67,-1.526 -5.003,-2.001 -5.051,-1.809 -9.125,-2.787 -12.221,-2.931 -3.097,-0.143 -5.074,0.286 -5.931,1.286 -0.858,1.001 -0.525,2.478 1,4.432 1.523,1.952 4.431,4.073 8.719,6.36 3.144,1.716 6.526,3.263 10.148,4.646 3.62,1.38 7.219,2.62 10.792,3.715 3.573,1.096 6.98,2.096 10.22,3.003 3.238,0.905 6.003,1.737 8.29,2.501 C 1.905,3.238 1.237,1.62 0,0 m 60.861,45.833 c -4.362,1.091 -30.679,0.379 -40.252,-7.092 -2.63,-2.053 -2.989,-4.301 -2.989,-6.934 0,-1.427 0.61,-2.664 1.765,-3.577 4.988,-3.942 19.288,-0.507 19.935,-0.353 0.923,0.219 1.902,0.441 2.902,0.67 9.785,2.23 15.321,3.673 15.321,7.375 0,0.896 -0.414,1.722 -1.166,2.325 -3.302,2.649 -15.904,0.056 -20.24,-0.908 l 0.646,-2.91 c 4.647,1.033 14.45,2.075 14.718,0.989 C 51.77,34.331 44.14,33.337 41.279,32.685 40.266,32.454 39.275,32.228 38.341,32.007 31.782,30.45 23.066,29.832 21.043,31.431 c -0.153,0.121 -0.153,0.16 -0.153,0.247 0,1.277 0.762,2.493 2.331,3.718 8.286,6.466 32.266,8.154 35.988,7.223 5.842,-1.476 8.705,-3.333 8.751,-5.676 C 67.284,34.402 54.406,25.596 43.591,20.97 42.626,20.558 41.573,20.064 40.353,19.493 35.973,17.443 22.532,12.608 19.843,12.064 17.153,11.521 6.146,9.291 6.146,9.291 l 0,0.144 c -0.763,2.287 -2.122,4.095 -4.073,5.431 -1.954,1.333 -4.241,2.429 -6.861,3.287 -2.622,0.858 -5.456,1.524 -8.505,2.001 -3.051,0.476 -6.075,0.976 -9.076,1.5 -3.002,0.524 -5.839,1.145 -8.505,1.859 -2.669,0.716 -4.909,1.691 -6.718,2.93 0.476,1.809 1.859,3.62 4.145,5.432 2.287,1.809 4.931,3.502 7.933,5.074 3.001,1.572 6.097,2.952 9.291,4.146 3.192,1.19 5.979,2.072 8.362,2.643 l -1.715,3.861 c -3.145,-0.859 -6.862,-2.027 -11.15,-3.503 -4.288,-1.479 -8.196,-3.241 -11.72,-5.288 -3.527,-2.051 -6.267,-4.313 -8.219,-6.79 -1.954,-2.479 -2.215,-5.146 -0.786,-8.004 0.666,-1.716 1.976,-2.98 3.93,-3.788 1.953,-0.811 4.264,-1.455 6.933,-1.93 2.667,-0.478 5.525,-0.882 8.576,-1.215 3.049,-0.335 6.05,-0.81 9.005,-1.429 2.952,-0.621 5.693,-1.478 8.219,-2.573 2.523,-1.097 4.55,-2.694 6.075,-4.789 C -1.572,7.909 -5.266,7.051 -9.791,5.718 -14.318,4.383 -19.01,2.788 -23.87,0.93 c -4.86,-1.859 -9.53,-3.955 -14.008,-6.289 -4.479,-2.336 -8.076,-4.67 -10.792,-7.004 -2.715,-2.337 -4.191,-4.599 -4.431,-6.789 -0.236,-2.192 1.501,-4.146 5.218,-5.862 1.429,-0.571 3.072,-0.857 4.931,-0.857 1.858,0 3.716,0.192 5.575,0.571 1.857,0.382 3.644,0.859 5.359,1.43 1.716,0.572 3.192,1.097 4.432,1.572 2.287,0.859 5.335,2.145 9.148,3.86 3.81,1.714 7.55,3.738 11.22,6.075 3.667,2.334 6.861,4.978 9.576,7.932 2.716,2.952 4.168,6.098 4.36,9.434 2.191,0.476 4.431,0.93 6.719,1.358 1.97,0.369 3.821,0.924 7.009,1.71 3.188,0.786 15.143,4.678 24.814,8.996 5.901,2.636 26.5,13.103 26.5,19.411 0,6.825 -7.625,8.528 -10.899,9.355"
             id="path5063"
             style="fill:#000000;fill-opacity:1;fill-rule:nonzero;stroke:none" /></g></g></g></g></svg>